<?xml version="1.0" encoding="utf-8" standalone="no"?>
<!DOCTYPE svg PUBLIC "-//W3C//DTD SVG 1.1//EN"
  "http://www.w3.org/Graphics/SVG/1.1/DTD/svg11.dtd">
<!-- Created with matplotlib (https://matplotlib.org/) -->
<svg height="1800pt" version="1.1" viewBox="0 0 720 1800" width="720pt" xmlns="http://www.w3.org/2000/svg" xmlns:xlink="http://www.w3.org/1999/xlink">
 <metadata>
  <rdf:RDF xmlns:cc="http://creativecommons.org/ns#" xmlns:dc="http://purl.org/dc/elements/1.1/" xmlns:rdf="http://www.w3.org/1999/02/22-rdf-syntax-ns#">
   <cc:Work>
    <dc:type rdf:resource="http://purl.org/dc/dcmitype/StillImage"/>
    <dc:date>2021-01-28T01:04:55.332101</dc:date>
    <dc:format>image/svg+xml</dc:format>
    <dc:creator>
     <cc:Agent>
      <dc:title>Matplotlib v3.3.2, https://matplotlib.org/</dc:title>
     </cc:Agent>
    </dc:creator>
   </cc:Work>
  </rdf:RDF>
 </metadata>
 <defs>
  <style type="text/css">*{stroke-linecap:butt;stroke-linejoin:round;}</style>
 </defs>
 <g id="figure_1">
  <g id="patch_1">
   <path d="M 0 1800 
L 720 1800 
L 720 0 
L 0 0 
z
" style="fill:none;"/>
  </g>
  <g id="axes_1">
   <g id="patch_2">
    <path clip-path="url(#p438eed1507)" d="M 313.2 1575 
L 424.8 1575 
L 424.8 1327.158055 
L 313.2 1327.158055 
z
" style="fill:#ff5e00;stroke:#000000;stroke-linejoin:miter;"/>
   </g>
   <g id="patch_3">
    <path clip-path="url(#p438eed1507)" d="M 313.2 1327.158055 
L 424.8 1327.158055 
L 424.8 1152.75076 
L 313.2 1152.75076 
z
" style="fill:#cf78c0;stroke:#000000;stroke-linejoin:miter;"/>
   </g>
   <g id="patch_4">
    <path clip-path="url(#p438eed1507)" d="M 313.2 1152.75076 
L 424.8 1152.75076 
L 424.8 1079.316109 
L 313.2 1079.316109 
z
" style="fill:#3ed8e7;stroke:#000000;stroke-linejoin:miter;"/>
   </g>
   <g id="patch_5">
    <path clip-path="url(#p438eed1507)" d="M 313.2 1079.316109 
L 424.8 1079.316109 
L 424.8 1015.06079 
L 313.2 1015.06079 
z
" style="fill:#7cd674;stroke:#000000;stroke-linejoin:miter;"/>
   </g>
   <g id="patch_6">
    <path clip-path="url(#p438eed1507)" d="M 313.2 1015.06079 
L 424.8 1015.06079 
L 424.8 978.343465 
L 313.2 978.343465 
z
" style="fill:#eb7598;stroke:#000000;stroke-linejoin:miter;"/>
   </g>
   <g id="patch_7">
    <path clip-path="url(#p438eed1507)" d="M 313.2 978.343465 
L 424.8 978.343465 
L 424.8 941.62614 
L 313.2 941.62614 
z
" style="fill:#ebe978;stroke:#000000;stroke-linejoin:miter;"/>
   </g>
   <g id="patch_8">
    <path clip-path="url(#p438eed1507)" d="M 313.2 941.62614 
L 424.8 941.62614 
L 424.8 904.908815 
L 313.2 904.908815 
z
" style="fill:#483752;stroke:#000000;stroke-linejoin:miter;"/>
   </g>
   <g id="patch_9">
    <path clip-path="url(#p438eed1507)" d="M 313.2 904.908815 
L 424.8 904.908815 
L 424.8 868.191489 
L 313.2 868.191489 
z
" style="fill:#29ba72;stroke:#000000;stroke-linejoin:miter;"/>
   </g>
   <g id="patch_10">
    <path clip-path="url(#p438eed1507)" d="M 313.2 868.191489 
L 424.8 868.191489 
L 424.8 840.653495 
L 313.2 840.653495 
z
" style="fill:#f5af76;stroke:#000000;stroke-linejoin:miter;"/>
   </g>
   <g id="patch_11">
    <path clip-path="url(#p438eed1507)" d="M 313.2 840.653495 
L 424.8 840.653495 
L 424.8 813.115502 
L 313.2 813.115502 
z
" style="fill:#7e93f7;stroke:#000000;stroke-linejoin:miter;"/>
   </g>
   <g id="patch_12">
    <path clip-path="url(#p438eed1507)" d="M 313.2 813.115502 
L 424.8 813.115502 
L 424.8 785.577508 
L 313.2 785.577508 
z
" style="fill:#54ffe3;stroke:#000000;stroke-linejoin:miter;"/>
   </g>
   <g id="patch_13">
    <path clip-path="url(#p438eed1507)" d="M 313.2 785.577508 
L 424.8 785.577508 
L 424.8 758.039514 
L 313.2 758.039514 
z
" style="fill:#db5858;stroke:#000000;stroke-linejoin:miter;"/>
   </g>
   <g id="patch_14">
    <path clip-path="url(#p438eed1507)" d="M 313.2 758.039514 
L 424.8 758.039514 
L 424.8 739.680851 
L 313.2 739.680851 
z
" style="fill:#4a8a64;stroke:#000000;stroke-linejoin:miter;"/>
   </g>
   <g id="patch_15">
    <path clip-path="url(#p438eed1507)" d="M 313.2 739.680851 
L 424.8 739.680851 
L 424.8 721.322188 
L 313.2 721.322188 
z
" style="fill:#de962a;stroke:#000000;stroke-linejoin:miter;"/>
   </g>
   <g id="patch_16">
    <path clip-path="url(#p438eed1507)" d="M 313.2 721.322188 
L 424.8 721.322188 
L 424.8 702.963526 
L 313.2 702.963526 
z
" style="fill:#4aa9ed;stroke:#000000;stroke-linejoin:miter;"/>
   </g>
   <g id="patch_17">
    <path clip-path="url(#p438eed1507)" d="M 313.2 702.963526 
L 424.8 702.963526 
L 424.8 684.604863 
L 313.2 684.604863 
z
" style="fill:#9e82b3;stroke:#000000;stroke-linejoin:miter;"/>
   </g>
   <g id="patch_18">
    <path clip-path="url(#p438eed1507)" d="M 313.2 684.604863 
L 424.8 684.604863 
L 424.8 666.246201 
L 313.2 666.246201 
z
" style="fill:#88dba8;stroke:#000000;stroke-linejoin:miter;"/>
   </g>
   <g id="patch_19">
    <path clip-path="url(#p438eed1507)" d="M 313.2 666.246201 
L 424.8 666.246201 
L 424.8 647.887538 
L 313.2 647.887538 
z
" style="fill:#ff5e00;stroke:#000000;stroke-linejoin:miter;"/>
   </g>
   <g id="patch_20">
    <path clip-path="url(#p438eed1507)" d="M 313.2 647.887538 
L 424.8 647.887538 
L 424.8 629.528875 
L 313.2 629.528875 
z
" style="fill:#cf78c0;stroke:#000000;stroke-linejoin:miter;"/>
   </g>
   <g id="patch_21">
    <path clip-path="url(#p438eed1507)" d="M 313.2 629.528875 
L 424.8 629.528875 
L 424.8 611.170213 
L 313.2 611.170213 
z
" style="fill:#3ed8e7;stroke:#000000;stroke-linejoin:miter;"/>
   </g>
   <g id="patch_22">
    <path clip-path="url(#p438eed1507)" d="M 313.2 611.170213 
L 424.8 611.170213 
L 424.8 592.81155 
L 313.2 592.81155 
z
" style="fill:#7cd674;stroke:#000000;stroke-linejoin:miter;"/>
   </g>
   <g id="patch_23">
    <path clip-path="url(#p438eed1507)" d="M 313.2 592.81155 
L 424.8 592.81155 
L 424.8 574.452888 
L 313.2 574.452888 
z
" style="fill:#eb7598;stroke:#000000;stroke-linejoin:miter;"/>
   </g>
   <g id="patch_24">
    <path clip-path="url(#p438eed1507)" d="M 313.2 574.452888 
L 424.8 574.452888 
L 424.8 556.094225 
L 313.2 556.094225 
z
" style="fill:#ebe978;stroke:#000000;stroke-linejoin:miter;"/>
   </g>
   <g id="patch_25">
    <path clip-path="url(#p438eed1507)" d="M 313.2 556.094225 
L 424.8 556.094225 
L 424.8 537.735562 
L 313.2 537.735562 
z
" style="fill:#483752;stroke:#000000;stroke-linejoin:miter;"/>
   </g>
   <g id="patch_26">
    <path clip-path="url(#p438eed1507)" d="M 313.2 537.735562 
L 424.8 537.735562 
L 424.8 528.556231 
L 313.2 528.556231 
z
" style="fill:#29ba72;stroke:#000000;stroke-linejoin:miter;"/>
   </g>
   <g id="patch_27">
    <path clip-path="url(#p438eed1507)" d="M 313.2 528.556231 
L 424.8 528.556231 
L 424.8 519.3769 
L 313.2 519.3769 
z
" style="fill:#f5af76;stroke:#000000;stroke-linejoin:miter;"/>
   </g>
   <g id="patch_28">
    <path clip-path="url(#p438eed1507)" d="M 313.2 519.3769 
L 424.8 519.3769 
L 424.8 510.197568 
L 313.2 510.197568 
z
" style="fill:#7e93f7;stroke:#000000;stroke-linejoin:miter;"/>
   </g>
   <g id="patch_29">
    <path clip-path="url(#p438eed1507)" d="M 313.2 510.197568 
L 424.8 510.197568 
L 424.8 501.018237 
L 313.2 501.018237 
z
" style="fill:#54ffe3;stroke:#000000;stroke-linejoin:miter;"/>
   </g>
   <g id="patch_30">
    <path clip-path="url(#p438eed1507)" d="M 313.2 501.018237 
L 424.8 501.018237 
L 424.8 491.838906 
L 313.2 491.838906 
z
" style="fill:#db5858;stroke:#000000;stroke-linejoin:miter;"/>
   </g>
   <g id="patch_31">
    <path clip-path="url(#p438eed1507)" d="M 313.2 491.838906 
L 424.8 491.838906 
L 424.8 482.659574 
L 313.2 482.659574 
z
" style="fill:#4a8a64;stroke:#000000;stroke-linejoin:miter;"/>
   </g>
   <g id="patch_32">
    <path clip-path="url(#p438eed1507)" d="M 313.2 482.659574 
L 424.8 482.659574 
L 424.8 473.480243 
L 313.2 473.480243 
z
" style="fill:#de962a;stroke:#000000;stroke-linejoin:miter;"/>
   </g>
   <g id="patch_33">
    <path clip-path="url(#p438eed1507)" d="M 313.2 473.480243 
L 424.8 473.480243 
L 424.8 464.300912 
L 313.2 464.300912 
z
" style="fill:#4aa9ed;stroke:#000000;stroke-linejoin:miter;"/>
   </g>
   <g id="patch_34">
    <path clip-path="url(#p438eed1507)" d="M 313.2 464.300912 
L 424.8 464.300912 
L 424.8 455.121581 
L 313.2 455.121581 
z
" style="fill:#9e82b3;stroke:#000000;stroke-linejoin:miter;"/>
   </g>
   <g id="patch_35">
    <path clip-path="url(#p438eed1507)" d="M 313.2 455.121581 
L 424.8 455.121581 
L 424.8 445.942249 
L 313.2 445.942249 
z
" style="fill:#88dba8;stroke:#000000;stroke-linejoin:miter;"/>
   </g>
   <g id="patch_36">
    <path clip-path="url(#p438eed1507)" d="M 313.2 445.942249 
L 424.8 445.942249 
L 424.8 436.762918 
L 313.2 436.762918 
z
" style="fill:#ff5e00;stroke:#000000;stroke-linejoin:miter;"/>
   </g>
   <g id="patch_37">
    <path clip-path="url(#p438eed1507)" d="M 313.2 436.762918 
L 424.8 436.762918 
L 424.8 427.583587 
L 313.2 427.583587 
z
" style="fill:#cf78c0;stroke:#000000;stroke-linejoin:miter;"/>
   </g>
   <g id="patch_38">
    <path clip-path="url(#p438eed1507)" d="M 313.2 427.583587 
L 424.8 427.583587 
L 424.8 418.404255 
L 313.2 418.404255 
z
" style="fill:#3ed8e7;stroke:#000000;stroke-linejoin:miter;"/>
   </g>
   <g id="patch_39">
    <path clip-path="url(#p438eed1507)" d="M 313.2 418.404255 
L 424.8 418.404255 
L 424.8 409.224924 
L 313.2 409.224924 
z
" style="fill:#7cd674;stroke:#000000;stroke-linejoin:miter;"/>
   </g>
   <g id="patch_40">
    <path clip-path="url(#p438eed1507)" d="M 313.2 409.224924 
L 424.8 409.224924 
L 424.8 400.045593 
L 313.2 400.045593 
z
" style="fill:#eb7598;stroke:#000000;stroke-linejoin:miter;"/>
   </g>
   <g id="patch_41">
    <path clip-path="url(#p438eed1507)" d="M 313.2 400.045593 
L 424.8 400.045593 
L 424.8 390.866261 
L 313.2 390.866261 
z
" style="fill:#ebe978;stroke:#000000;stroke-linejoin:miter;"/>
   </g>
   <g id="patch_42">
    <path clip-path="url(#p438eed1507)" d="M 313.2 390.866261 
L 424.8 390.866261 
L 424.8 381.68693 
L 313.2 381.68693 
z
" style="fill:#483752;stroke:#000000;stroke-linejoin:miter;"/>
   </g>
   <g id="patch_43">
    <path clip-path="url(#p438eed1507)" d="M 313.2 381.68693 
L 424.8 381.68693 
L 424.8 372.507599 
L 313.2 372.507599 
z
" style="fill:#29ba72;stroke:#000000;stroke-linejoin:miter;"/>
   </g>
   <g id="patch_44">
    <path clip-path="url(#p438eed1507)" d="M 313.2 372.507599 
L 424.8 372.507599 
L 424.8 363.328267 
L 313.2 363.328267 
z
" style="fill:#f5af76;stroke:#000000;stroke-linejoin:miter;"/>
   </g>
   <g id="patch_45">
    <path clip-path="url(#p438eed1507)" d="M 313.2 363.328267 
L 424.8 363.328267 
L 424.8 354.148936 
L 313.2 354.148936 
z
" style="fill:#7e93f7;stroke:#000000;stroke-linejoin:miter;"/>
   </g>
   <g id="patch_46">
    <path clip-path="url(#p438eed1507)" d="M 313.2 354.148936 
L 424.8 354.148936 
L 424.8 344.969605 
L 313.2 344.969605 
z
" style="fill:#54ffe3;stroke:#000000;stroke-linejoin:miter;"/>
   </g>
   <g id="patch_47">
    <path clip-path="url(#p438eed1507)" d="M 313.2 344.969605 
L 424.8 344.969605 
L 424.8 335.790274 
L 313.2 335.790274 
z
" style="fill:#db5858;stroke:#000000;stroke-linejoin:miter;"/>
   </g>
   <g id="patch_48">
    <path clip-path="url(#p438eed1507)" d="M 313.2 335.790274 
L 424.8 335.790274 
L 424.8 326.610942 
L 313.2 326.610942 
z
" style="fill:#4a8a64;stroke:#000000;stroke-linejoin:miter;"/>
   </g>
   <g id="patch_49">
    <path clip-path="url(#p438eed1507)" d="M 313.2 326.610942 
L 424.8 326.610942 
L 424.8 317.431611 
L 313.2 317.431611 
z
" style="fill:#de962a;stroke:#000000;stroke-linejoin:miter;"/>
   </g>
   <g id="patch_50">
    <path clip-path="url(#p438eed1507)" d="M 313.2 317.431611 
L 424.8 317.431611 
L 424.8 308.25228 
L 313.2 308.25228 
z
" style="fill:#4aa9ed;stroke:#000000;stroke-linejoin:miter;"/>
   </g>
   <g id="patch_51">
    <path clip-path="url(#p438eed1507)" d="M 313.2 308.25228 
L 424.8 308.25228 
L 424.8 299.072948 
L 313.2 299.072948 
z
" style="fill:#9e82b3;stroke:#000000;stroke-linejoin:miter;"/>
   </g>
   <g id="patch_52">
    <path clip-path="url(#p438eed1507)" d="M 313.2 299.072948 
L 424.8 299.072948 
L 424.8 289.893617 
L 313.2 289.893617 
z
" style="fill:#88dba8;stroke:#000000;stroke-linejoin:miter;"/>
   </g>
   <g id="patch_53">
    <path clip-path="url(#p438eed1507)" d="M 313.2 289.893617 
L 424.8 289.893617 
L 424.8 280.714286 
L 313.2 280.714286 
z
" style="fill:#ff5e00;stroke:#000000;stroke-linejoin:miter;"/>
   </g>
   <g id="text_1">
    <!-- 27 -->
    <g transform="translate(435.96 1451.079027)scale(0.3 -0.3)">
     <defs>
      <path d="M 19.1875 8.296875 
L 53.609375 8.296875 
L 53.609375 0 
L 7.328125 0 
L 7.328125 8.296875 
Q 12.9375 14.109375 22.625 23.890625 
Q 32.328125 33.6875 34.8125 36.53125 
Q 39.546875 41.84375 41.421875 45.53125 
Q 43.3125 49.21875 43.3125 52.78125 
Q 43.3125 58.59375 39.234375 62.25 
Q 35.15625 65.921875 28.609375 65.921875 
Q 23.96875 65.921875 18.8125 64.3125 
Q 13.671875 62.703125 7.8125 59.421875 
L 7.8125 69.390625 
Q 13.765625 71.78125 18.9375 73 
Q 24.125 74.21875 28.421875 74.21875 
Q 39.75 74.21875 46.484375 68.546875 
Q 53.21875 62.890625 53.21875 53.421875 
Q 53.21875 48.921875 51.53125 44.890625 
Q 49.859375 40.875 45.40625 35.40625 
Q 44.1875 33.984375 37.640625 27.21875 
Q 31.109375 20.453125 19.1875 8.296875 
z
" id="DejaVuSans-50"/>
      <path d="M 8.203125 72.90625 
L 55.078125 72.90625 
L 55.078125 68.703125 
L 28.609375 0 
L 18.3125 0 
L 43.21875 64.59375 
L 8.203125 64.59375 
z
" id="DejaVuSans-55"/>
     </defs>
     <use xlink:href="#DejaVuSans-50"/>
     <use x="63.623047" xlink:href="#DejaVuSans-55"/>
    </g>
   </g>
   <g id="text_2">
    <!-- 19 -->
    <g transform="translate(435.96 1239.954407)scale(0.3 -0.3)">
     <defs>
      <path d="M 12.40625 8.296875 
L 28.515625 8.296875 
L 28.515625 63.921875 
L 10.984375 60.40625 
L 10.984375 69.390625 
L 28.421875 72.90625 
L 38.28125 72.90625 
L 38.28125 8.296875 
L 54.390625 8.296875 
L 54.390625 0 
L 12.40625 0 
z
" id="DejaVuSans-49"/>
      <path d="M 10.984375 1.515625 
L 10.984375 10.5 
Q 14.703125 8.734375 18.5 7.8125 
Q 22.3125 6.890625 25.984375 6.890625 
Q 35.75 6.890625 40.890625 13.453125 
Q 46.046875 20.015625 46.78125 33.40625 
Q 43.953125 29.203125 39.59375 26.953125 
Q 35.25 24.703125 29.984375 24.703125 
Q 19.046875 24.703125 12.671875 31.3125 
Q 6.296875 37.9375 6.296875 49.421875 
Q 6.296875 60.640625 12.9375 67.421875 
Q 19.578125 74.21875 30.609375 74.21875 
Q 43.265625 74.21875 49.921875 64.515625 
Q 56.59375 54.828125 56.59375 36.375 
Q 56.59375 19.140625 48.40625 8.859375 
Q 40.234375 -1.421875 26.421875 -1.421875 
Q 22.703125 -1.421875 18.890625 -0.6875 
Q 15.09375 0.046875 10.984375 1.515625 
z
M 30.609375 32.421875 
Q 37.25 32.421875 41.125 36.953125 
Q 45.015625 41.5 45.015625 49.421875 
Q 45.015625 57.28125 41.125 61.84375 
Q 37.25 66.40625 30.609375 66.40625 
Q 23.96875 66.40625 20.09375 61.84375 
Q 16.21875 57.28125 16.21875 49.421875 
Q 16.21875 41.5 20.09375 36.953125 
Q 23.96875 32.421875 30.609375 32.421875 
z
" id="DejaVuSans-57"/>
     </defs>
     <use xlink:href="#DejaVuSans-49"/>
     <use x="63.623047" xlink:href="#DejaVuSans-57"/>
    </g>
   </g>
   <g id="text_3">
    <!-- 8 -->
    <g transform="translate(435.96 1116.033435)scale(0.3 -0.3)">
     <defs>
      <path d="M 31.78125 34.625 
Q 24.75 34.625 20.71875 30.859375 
Q 16.703125 27.09375 16.703125 20.515625 
Q 16.703125 13.921875 20.71875 10.15625 
Q 24.75 6.390625 31.78125 6.390625 
Q 38.8125 6.390625 42.859375 10.171875 
Q 46.921875 13.96875 46.921875 20.515625 
Q 46.921875 27.09375 42.890625 30.859375 
Q 38.875 34.625 31.78125 34.625 
z
M 21.921875 38.8125 
Q 15.578125 40.375 12.03125 44.71875 
Q 8.5 49.078125 8.5 55.328125 
Q 8.5 64.0625 14.71875 69.140625 
Q 20.953125 74.21875 31.78125 74.21875 
Q 42.671875 74.21875 48.875 69.140625 
Q 55.078125 64.0625 55.078125 55.328125 
Q 55.078125 49.078125 51.53125 44.71875 
Q 48 40.375 41.703125 38.8125 
Q 48.828125 37.15625 52.796875 32.3125 
Q 56.78125 27.484375 56.78125 20.515625 
Q 56.78125 9.90625 50.3125 4.234375 
Q 43.84375 -1.421875 31.78125 -1.421875 
Q 19.734375 -1.421875 13.25 4.234375 
Q 6.78125 9.90625 6.78125 20.515625 
Q 6.78125 27.484375 10.78125 32.3125 
Q 14.796875 37.15625 21.921875 38.8125 
z
M 18.3125 54.390625 
Q 18.3125 48.734375 21.84375 45.5625 
Q 25.390625 42.390625 31.78125 42.390625 
Q 38.140625 42.390625 41.71875 45.5625 
Q 45.3125 48.734375 45.3125 54.390625 
Q 45.3125 60.0625 41.71875 63.234375 
Q 38.140625 66.40625 31.78125 66.40625 
Q 25.390625 66.40625 21.84375 63.234375 
Q 18.3125 60.0625 18.3125 54.390625 
z
" id="DejaVuSans-56"/>
     </defs>
     <use xlink:href="#DejaVuSans-56"/>
    </g>
   </g>
   <g id="text_4">
    <!-- 7 -->
    <g transform="translate(435.96 1047.18845)scale(0.2 -0.2)">
     <use xlink:href="#DejaVuSans-55"/>
    </g>
   </g>
   <g id="text_5">
    <!-- 4 -->
    <g transform="translate(435.96 996.702128)scale(0.2 -0.2)">
     <defs>
      <path d="M 37.796875 64.3125 
L 12.890625 25.390625 
L 37.796875 25.390625 
z
M 35.203125 72.90625 
L 47.609375 72.90625 
L 47.609375 25.390625 
L 58.015625 25.390625 
L 58.015625 17.1875 
L 47.609375 17.1875 
L 47.609375 0 
L 37.796875 0 
L 37.796875 17.1875 
L 4.890625 17.1875 
L 4.890625 26.703125 
z
" id="DejaVuSans-52"/>
     </defs>
     <use xlink:href="#DejaVuSans-52"/>
    </g>
   </g>
   <g id="text_6">
    <!-- 4 -->
    <g transform="translate(435.96 959.984802)scale(0.2 -0.2)">
     <use xlink:href="#DejaVuSans-52"/>
    </g>
   </g>
   <g id="text_7">
    <!-- 4 -->
    <g transform="translate(435.96 923.267477)scale(0.2 -0.2)">
     <use xlink:href="#DejaVuSans-52"/>
    </g>
   </g>
   <g id="text_8">
    <!-- 4 -->
    <g transform="translate(435.96 886.550152)scale(0.2 -0.2)">
     <use xlink:href="#DejaVuSans-52"/>
    </g>
   </g>
   <g id="text_9">
    <!-- 3 -->
    <g transform="translate(435.96 854.422492)scale(0.2 -0.2)">
     <defs>
      <path d="M 40.578125 39.3125 
Q 47.65625 37.796875 51.625 33 
Q 55.609375 28.21875 55.609375 21.1875 
Q 55.609375 10.40625 48.1875 4.484375 
Q 40.765625 -1.421875 27.09375 -1.421875 
Q 22.515625 -1.421875 17.65625 -0.515625 
Q 12.796875 0.390625 7.625 2.203125 
L 7.625 11.71875 
Q 11.71875 9.328125 16.59375 8.109375 
Q 21.484375 6.890625 26.8125 6.890625 
Q 36.078125 6.890625 40.9375 10.546875 
Q 45.796875 14.203125 45.796875 21.1875 
Q 45.796875 27.640625 41.28125 31.265625 
Q 36.765625 34.90625 28.71875 34.90625 
L 20.21875 34.90625 
L 20.21875 43.015625 
L 29.109375 43.015625 
Q 36.375 43.015625 40.234375 45.921875 
Q 44.09375 48.828125 44.09375 54.296875 
Q 44.09375 59.90625 40.109375 62.90625 
Q 36.140625 65.921875 28.71875 65.921875 
Q 24.65625 65.921875 20.015625 65.03125 
Q 15.375 64.15625 9.8125 62.3125 
L 9.8125 71.09375 
Q 15.4375 72.65625 20.34375 73.4375 
Q 25.25 74.21875 29.59375 74.21875 
Q 40.828125 74.21875 47.359375 69.109375 
Q 53.90625 64.015625 53.90625 55.328125 
Q 53.90625 49.265625 50.4375 45.09375 
Q 46.96875 40.921875 40.578125 39.3125 
z
" id="DejaVuSans-51"/>
     </defs>
     <use xlink:href="#DejaVuSans-51"/>
    </g>
   </g>
   <g id="text_10">
    <!-- 3 -->
    <g transform="translate(435.96 826.884498)scale(0.2 -0.2)">
     <use xlink:href="#DejaVuSans-51"/>
    </g>
   </g>
   <g id="text_11">
    <!-- 3 -->
    <g transform="translate(435.96 799.346505)scale(0.2 -0.2)">
     <use xlink:href="#DejaVuSans-51"/>
    </g>
   </g>
   <g id="text_12">
    <!-- 3 -->
    <g transform="translate(435.96 771.808511)scale(0.2 -0.2)">
     <use xlink:href="#DejaVuSans-51"/>
    </g>
   </g>
   <g id="text_13">
    <!-- 2 -->
    <g transform="translate(435.96 748.860182)scale(0.15 -0.15)">
     <use xlink:href="#DejaVuSans-50"/>
    </g>
   </g>
   <g id="text_14">
    <!-- 2 -->
    <g transform="translate(435.96 730.50152)scale(0.15 -0.15)">
     <use xlink:href="#DejaVuSans-50"/>
    </g>
   </g>
   <g id="text_15">
    <!-- 2 -->
    <g transform="translate(435.96 712.142857)scale(0.15 -0.15)">
     <use xlink:href="#DejaVuSans-50"/>
    </g>
   </g>
   <g id="text_16">
    <!-- 2 -->
    <g transform="translate(435.96 693.784195)scale(0.15 -0.15)">
     <use xlink:href="#DejaVuSans-50"/>
    </g>
   </g>
   <g id="text_17">
    <!-- 2 -->
    <g transform="translate(435.96 675.425532)scale(0.15 -0.15)">
     <use xlink:href="#DejaVuSans-50"/>
    </g>
   </g>
   <g id="text_18">
    <!-- 2 -->
    <g transform="translate(435.96 657.066869)scale(0.15 -0.15)">
     <use xlink:href="#DejaVuSans-50"/>
    </g>
   </g>
   <g id="text_19">
    <!-- 2 -->
    <g transform="translate(435.96 638.708207)scale(0.15 -0.15)">
     <use xlink:href="#DejaVuSans-50"/>
    </g>
   </g>
   <g id="text_20">
    <!-- 2 -->
    <g transform="translate(435.96 620.349544)scale(0.15 -0.15)">
     <use xlink:href="#DejaVuSans-50"/>
    </g>
   </g>
   <g id="text_21">
    <!-- 2 -->
    <g transform="translate(435.96 601.990881)scale(0.15 -0.15)">
     <use xlink:href="#DejaVuSans-50"/>
    </g>
   </g>
   <g id="text_22">
    <!-- 2 -->
    <g transform="translate(435.96 583.632219)scale(0.15 -0.15)">
     <use xlink:href="#DejaVuSans-50"/>
    </g>
   </g>
   <g id="text_23">
    <!-- 2 -->
    <g transform="translate(435.96 565.273556)scale(0.15 -0.15)">
     <use xlink:href="#DejaVuSans-50"/>
    </g>
   </g>
   <g id="text_24">
    <!-- 2 -->
    <g transform="translate(435.96 546.914894)scale(0.15 -0.15)">
     <use xlink:href="#DejaVuSans-50"/>
    </g>
   </g>
  </g>
 </g>
 <defs>
  <clipPath id="p438eed1507">
   <rect height="1359" width="558" x="90" y="216"/>
  </clipPath>
 </defs>
</svg>
