<?xml version="1.0" encoding="utf-8" standalone="no"?>
<!DOCTYPE svg PUBLIC "-//W3C//DTD SVG 1.1//EN"
  "http://www.w3.org/Graphics/SVG/1.1/DTD/svg11.dtd">
<!-- Created with matplotlib (https://matplotlib.org/) -->
<svg height="648pt" version="1.1" viewBox="0 0 1224 648" width="1224pt" xmlns="http://www.w3.org/2000/svg" xmlns:xlink="http://www.w3.org/1999/xlink">
 <metadata>
  <rdf:RDF xmlns:cc="http://creativecommons.org/ns#" xmlns:dc="http://purl.org/dc/elements/1.1/" xmlns:rdf="http://www.w3.org/1999/02/22-rdf-syntax-ns#">
   <cc:Work>
    <dc:type rdf:resource="http://purl.org/dc/dcmitype/StillImage"/>
    <dc:date>2021-01-28T01:02:48.071134</dc:date>
    <dc:format>image/svg+xml</dc:format>
    <dc:creator>
     <cc:Agent>
      <dc:title>Matplotlib v3.3.2, https://matplotlib.org/</dc:title>
     </cc:Agent>
    </dc:creator>
   </cc:Work>
  </rdf:RDF>
 </metadata>
 <defs>
  <style type="text/css">*{stroke-linecap:butt;stroke-linejoin:round;}</style>
 </defs>
 <g id="figure_1">
  <g id="patch_1">
   <path d="M 0 648 
L 1224 648 
L 1224 0 
L 0 0 
z
" style="fill:none;"/>
  </g>
  <g id="axes_1">
   <g id="patch_2">
    <path d="M 153 567 
L 1101.6 567 
L 1101.6 77.76 
L 153 77.76 
z
" style="fill:#ffffff;"/>
   </g>
   <g id="patch_3">
    <path clip-path="url(#p8f93569b0d)" d="M 196.118182 567 
L 237.183117 567 
L 237.183117 101.057143 
L 196.118182 101.057143 
z
" style="fill:#1f77b4;fill-opacity:0.5;stroke:#000000;stroke-linejoin:miter;"/>
   </g>
   <g id="patch_4">
    <path clip-path="url(#p8f93569b0d)" d="M 237.183117 567 
L 278.248052 567 
L 278.248052 565.863554 
L 237.183117 565.863554 
z
" style="fill:#1f77b4;fill-opacity:0.5;stroke:#000000;stroke-linejoin:miter;"/>
   </g>
   <g id="patch_5">
    <path clip-path="url(#p8f93569b0d)" d="M 278.248052 567 
L 319.312987 567 
L 319.312987 561.31777 
L 278.248052 561.31777 
z
" style="fill:#1f77b4;fill-opacity:0.5;stroke:#000000;stroke-linejoin:miter;"/>
   </g>
   <g id="patch_6">
    <path clip-path="url(#p8f93569b0d)" d="M 319.312987 567 
L 360.377922 567 
L 360.377922 562.454216 
L 319.312987 562.454216 
z
" style="fill:#1f77b4;fill-opacity:0.5;stroke:#000000;stroke-linejoin:miter;"/>
   </g>
   <g id="patch_7">
    <path clip-path="url(#p8f93569b0d)" d="M 360.377922 567 
L 401.442857 567 
L 401.442857 564.727108 
L 360.377922 564.727108 
z
" style="fill:#1f77b4;fill-opacity:0.5;stroke:#000000;stroke-linejoin:miter;"/>
   </g>
   <g id="patch_8">
    <path clip-path="url(#p8f93569b0d)" d="M 401.442857 567 
L 442.507792 567 
L 442.507792 565.863554 
L 401.442857 565.863554 
z
" style="fill:#1f77b4;fill-opacity:0.5;stroke:#000000;stroke-linejoin:miter;"/>
   </g>
   <g id="patch_9">
    <path clip-path="url(#p8f93569b0d)" d="M 442.507792 567 
L 483.572727 567 
L 483.572727 565.863554 
L 442.507792 565.863554 
z
" style="fill:#1f77b4;fill-opacity:0.5;stroke:#000000;stroke-linejoin:miter;"/>
   </g>
   <g id="patch_10">
    <path clip-path="url(#p8f93569b0d)" d="M 483.572727 567 
L 524.637662 567 
L 524.637662 565.863554 
L 483.572727 565.863554 
z
" style="fill:#1f77b4;fill-opacity:0.5;stroke:#000000;stroke-linejoin:miter;"/>
   </g>
   <g id="patch_11">
    <path clip-path="url(#p8f93569b0d)" d="M 524.637662 567 
L 565.702597 567 
L 565.702597 567 
L 524.637662 567 
z
" style="fill:#1f77b4;fill-opacity:0.5;stroke:#000000;stroke-linejoin:miter;"/>
   </g>
   <g id="patch_12">
    <path clip-path="url(#p8f93569b0d)" d="M 565.702597 567 
L 606.767532 567 
L 606.767532 567 
L 565.702597 567 
z
" style="fill:#1f77b4;fill-opacity:0.5;stroke:#000000;stroke-linejoin:miter;"/>
   </g>
   <g id="patch_13">
    <path clip-path="url(#p8f93569b0d)" d="M 606.767532 567 
L 647.832468 567 
L 647.832468 567 
L 606.767532 567 
z
" style="fill:#1f77b4;fill-opacity:0.5;stroke:#000000;stroke-linejoin:miter;"/>
   </g>
   <g id="patch_14">
    <path clip-path="url(#p8f93569b0d)" d="M 647.832468 567 
L 688.897403 567 
L 688.897403 567 
L 647.832468 567 
z
" style="fill:#1f77b4;fill-opacity:0.5;stroke:#000000;stroke-linejoin:miter;"/>
   </g>
   <g id="patch_15">
    <path clip-path="url(#p8f93569b0d)" d="M 688.897403 567 
L 729.962338 567 
L 729.962338 567 
L 688.897403 567 
z
" style="fill:#1f77b4;fill-opacity:0.5;stroke:#000000;stroke-linejoin:miter;"/>
   </g>
   <g id="patch_16">
    <path clip-path="url(#p8f93569b0d)" d="M 729.962338 567 
L 771.027273 567 
L 771.027273 567 
L 729.962338 567 
z
" style="fill:#1f77b4;fill-opacity:0.5;stroke:#000000;stroke-linejoin:miter;"/>
   </g>
   <g id="patch_17">
    <path clip-path="url(#p8f93569b0d)" d="M 771.027273 567 
L 812.092208 567 
L 812.092208 565.863554 
L 771.027273 565.863554 
z
" style="fill:#1f77b4;fill-opacity:0.5;stroke:#000000;stroke-linejoin:miter;"/>
   </g>
   <g id="patch_18">
    <path clip-path="url(#p8f93569b0d)" d="M 812.092208 567 
L 853.157143 567 
L 853.157143 565.863554 
L 812.092208 565.863554 
z
" style="fill:#1f77b4;fill-opacity:0.5;stroke:#000000;stroke-linejoin:miter;"/>
   </g>
   <g id="patch_19">
    <path clip-path="url(#p8f93569b0d)" d="M 853.157143 567 
L 894.222078 567 
L 894.222078 567 
L 853.157143 567 
z
" style="fill:#1f77b4;fill-opacity:0.5;stroke:#000000;stroke-linejoin:miter;"/>
   </g>
   <g id="patch_20">
    <path clip-path="url(#p8f93569b0d)" d="M 894.222078 567 
L 935.287013 567 
L 935.287013 567 
L 894.222078 567 
z
" style="fill:#1f77b4;fill-opacity:0.5;stroke:#000000;stroke-linejoin:miter;"/>
   </g>
   <g id="patch_21">
    <path clip-path="url(#p8f93569b0d)" d="M 935.287013 567 
L 976.351948 567 
L 976.351948 567 
L 935.287013 567 
z
" style="fill:#1f77b4;fill-opacity:0.5;stroke:#000000;stroke-linejoin:miter;"/>
   </g>
   <g id="patch_22">
    <path clip-path="url(#p8f93569b0d)" d="M 976.351948 567 
L 1017.416883 567 
L 1017.416883 567 
L 976.351948 567 
z
" style="fill:#1f77b4;fill-opacity:0.5;stroke:#000000;stroke-linejoin:miter;"/>
   </g>
   <g id="patch_23">
    <path clip-path="url(#p8f93569b0d)" d="M 1017.416883 567 
L 1058.481818 567 
L 1058.481818 565.863554 
L 1017.416883 565.863554 
z
" style="fill:#1f77b4;fill-opacity:0.5;stroke:#000000;stroke-linejoin:miter;"/>
   </g>
   <g id="matplotlib.axis_1">
    <g id="xtick_1">
     <g id="line2d_1">
      <defs>
       <path d="M 0 0 
L 0 10 
" id="mcbc23dfc96" style="stroke:#000000;stroke-width:3;"/>
      </defs>
      <g>
       <use style="stroke:#000000;stroke-width:3;" x="196.025579" xlink:href="#mcbc23dfc96" y="567"/>
      </g>
     </g>
     <g id="text_1">
      <!-- 0 -->
      <g transform="translate(188.371985 597.216563)scale(0.22 -0.22)">
       <defs>
        <path d="M 46 36.53125 
Q 46 50.203125 43.4375 55.78125 
Q 40.875 61.375 34.8125 61.375 
Q 28.765625 61.375 26.171875 55.78125 
Q 23.578125 50.203125 23.578125 36.53125 
Q 23.578125 22.703125 26.171875 17.03125 
Q 28.765625 11.375 34.8125 11.375 
Q 40.828125 11.375 43.40625 17.03125 
Q 46 22.703125 46 36.53125 
z
M 64.796875 36.375 
Q 64.796875 18.265625 56.984375 8.421875 
Q 49.171875 -1.421875 34.8125 -1.421875 
Q 20.40625 -1.421875 12.59375 8.421875 
Q 4.78125 18.265625 4.78125 36.375 
Q 4.78125 54.546875 12.59375 64.375 
Q 20.40625 74.21875 34.8125 74.21875 
Q 49.171875 74.21875 56.984375 64.375 
Q 64.796875 54.546875 64.796875 36.375 
z
" id="DejaVuSans-Bold-48"/>
       </defs>
       <use xlink:href="#DejaVuSans-Bold-48"/>
      </g>
     </g>
    </g>
    <g id="xtick_2">
     <g id="line2d_2">
      <g>
       <use style="stroke:#000000;stroke-width:3;" x="381.231192" xlink:href="#mcbc23dfc96" y="567"/>
      </g>
     </g>
     <g id="text_2">
      <!-- 200000 -->
      <g transform="translate(335.30963 597.216563)scale(0.22 -0.22)">
       <defs>
        <path d="M 28.8125 13.8125 
L 60.890625 13.8125 
L 60.890625 0 
L 7.90625 0 
L 7.90625 13.8125 
L 34.515625 37.3125 
Q 38.09375 40.53125 39.796875 43.609375 
Q 41.5 46.6875 41.5 50 
Q 41.5 55.125 38.0625 58.25 
Q 34.625 61.375 28.90625 61.375 
Q 24.515625 61.375 19.28125 59.5 
Q 14.0625 57.625 8.109375 53.90625 
L 8.109375 69.921875 
Q 14.453125 72.015625 20.65625 73.109375 
Q 26.859375 74.21875 32.8125 74.21875 
Q 45.90625 74.21875 53.15625 68.453125 
Q 60.40625 62.703125 60.40625 52.390625 
Q 60.40625 46.4375 57.328125 41.28125 
Q 54.25 36.140625 44.390625 27.484375 
z
" id="DejaVuSans-Bold-50"/>
       </defs>
       <use xlink:href="#DejaVuSans-Bold-50"/>
       <use x="69.580078" xlink:href="#DejaVuSans-Bold-48"/>
       <use x="139.160156" xlink:href="#DejaVuSans-Bold-48"/>
       <use x="208.740234" xlink:href="#DejaVuSans-Bold-48"/>
       <use x="278.320312" xlink:href="#DejaVuSans-Bold-48"/>
       <use x="347.900391" xlink:href="#DejaVuSans-Bold-48"/>
      </g>
     </g>
    </g>
    <g id="xtick_3">
     <g id="line2d_3">
      <g>
       <use style="stroke:#000000;stroke-width:3;" x="566.436805" xlink:href="#mcbc23dfc96" y="567"/>
      </g>
     </g>
     <g id="text_3">
      <!-- 400000 -->
      <g transform="translate(520.515243 597.216563)scale(0.22 -0.22)">
       <defs>
        <path d="M 36.8125 57.421875 
L 16.21875 26.90625 
L 36.8125 26.90625 
z
M 33.6875 72.90625 
L 54.59375 72.90625 
L 54.59375 26.90625 
L 64.984375 26.90625 
L 64.984375 13.28125 
L 54.59375 13.28125 
L 54.59375 0 
L 36.8125 0 
L 36.8125 13.28125 
L 4.5 13.28125 
L 4.5 29.390625 
z
" id="DejaVuSans-Bold-52"/>
       </defs>
       <use xlink:href="#DejaVuSans-Bold-52"/>
       <use x="69.580078" xlink:href="#DejaVuSans-Bold-48"/>
       <use x="139.160156" xlink:href="#DejaVuSans-Bold-48"/>
       <use x="208.740234" xlink:href="#DejaVuSans-Bold-48"/>
       <use x="278.320312" xlink:href="#DejaVuSans-Bold-48"/>
       <use x="347.900391" xlink:href="#DejaVuSans-Bold-48"/>
      </g>
     </g>
    </g>
    <g id="xtick_4">
     <g id="line2d_4">
      <g>
       <use style="stroke:#000000;stroke-width:3;" x="751.642419" xlink:href="#mcbc23dfc96" y="567"/>
      </g>
     </g>
     <g id="text_4">
      <!-- 600000 -->
      <g transform="translate(705.720856 597.216563)scale(0.22 -0.22)">
       <defs>
        <path d="M 36.1875 35.984375 
Q 31.25 35.984375 28.78125 32.78125 
Q 26.3125 29.59375 26.3125 23.1875 
Q 26.3125 16.796875 28.78125 13.59375 
Q 31.25 10.40625 36.1875 10.40625 
Q 41.15625 10.40625 43.625 13.59375 
Q 46.09375 16.796875 46.09375 23.1875 
Q 46.09375 29.59375 43.625 32.78125 
Q 41.15625 35.984375 36.1875 35.984375 
z
M 59.421875 71 
L 59.421875 57.515625 
Q 54.78125 59.71875 50.671875 60.765625 
Q 46.578125 61.8125 42.671875 61.8125 
Q 34.28125 61.8125 29.59375 57.140625 
Q 24.90625 52.484375 24.125 43.3125 
Q 27.34375 45.703125 31.09375 46.890625 
Q 34.859375 48.09375 39.3125 48.09375 
Q 50.484375 48.09375 57.34375 41.546875 
Q 64.203125 35.015625 64.203125 24.421875 
Q 64.203125 12.703125 56.53125 5.640625 
Q 48.875 -1.421875 35.984375 -1.421875 
Q 21.78125 -1.421875 13.984375 8.171875 
Q 6.203125 17.78125 6.203125 35.40625 
Q 6.203125 53.46875 15.3125 63.796875 
Q 24.421875 74.125 40.28125 74.125 
Q 45.3125 74.125 50.046875 73.34375 
Q 54.78125 72.5625 59.421875 71 
z
" id="DejaVuSans-Bold-54"/>
       </defs>
       <use xlink:href="#DejaVuSans-Bold-54"/>
       <use x="69.580078" xlink:href="#DejaVuSans-Bold-48"/>
       <use x="139.160156" xlink:href="#DejaVuSans-Bold-48"/>
       <use x="208.740234" xlink:href="#DejaVuSans-Bold-48"/>
       <use x="278.320312" xlink:href="#DejaVuSans-Bold-48"/>
       <use x="347.900391" xlink:href="#DejaVuSans-Bold-48"/>
      </g>
     </g>
    </g>
    <g id="xtick_5">
     <g id="line2d_5">
      <g>
       <use style="stroke:#000000;stroke-width:3;" x="936.848032" xlink:href="#mcbc23dfc96" y="567"/>
      </g>
     </g>
     <g id="text_5">
      <!-- 800000 -->
      <g transform="translate(890.926469 597.216563)scale(0.22 -0.22)">
       <defs>
        <path d="M 34.8125 32.625 
Q 29.546875 32.625 26.703125 29.734375 
Q 23.875 26.859375 23.875 21.484375 
Q 23.875 16.109375 26.703125 13.25 
Q 29.546875 10.40625 34.8125 10.40625 
Q 40.046875 10.40625 42.828125 13.25 
Q 45.609375 16.109375 45.609375 21.484375 
Q 45.609375 26.90625 42.828125 29.765625 
Q 40.046875 32.625 34.8125 32.625 
z
M 21.09375 38.8125 
Q 14.453125 40.828125 11.078125 44.96875 
Q 7.71875 49.125 7.71875 55.328125 
Q 7.71875 64.546875 14.59375 69.375 
Q 21.484375 74.21875 34.8125 74.21875 
Q 48.046875 74.21875 54.921875 69.40625 
Q 61.8125 64.59375 61.8125 55.328125 
Q 61.8125 49.125 58.421875 44.96875 
Q 55.03125 40.828125 48.390625 38.8125 
Q 55.8125 36.765625 59.59375 32.15625 
Q 63.375 27.546875 63.375 20.515625 
Q 63.375 9.671875 56.171875 4.125 
Q 48.96875 -1.421875 34.8125 -1.421875 
Q 20.609375 -1.421875 13.359375 4.125 
Q 6.109375 9.671875 6.109375 20.515625 
Q 6.109375 27.546875 9.890625 32.15625 
Q 13.671875 36.765625 21.09375 38.8125 
z
M 25.484375 53.421875 
Q 25.484375 49.078125 27.90625 46.734375 
Q 30.328125 44.390625 34.8125 44.390625 
Q 39.203125 44.390625 41.59375 46.734375 
Q 44 49.078125 44 53.421875 
Q 44 57.765625 41.59375 60.078125 
Q 39.203125 62.40625 34.8125 62.40625 
Q 30.328125 62.40625 27.90625 60.0625 
Q 25.484375 57.71875 25.484375 53.421875 
z
" id="DejaVuSans-Bold-56"/>
       </defs>
       <use xlink:href="#DejaVuSans-Bold-56"/>
       <use x="69.580078" xlink:href="#DejaVuSans-Bold-48"/>
       <use x="139.160156" xlink:href="#DejaVuSans-Bold-48"/>
       <use x="208.740234" xlink:href="#DejaVuSans-Bold-48"/>
       <use x="278.320312" xlink:href="#DejaVuSans-Bold-48"/>
       <use x="347.900391" xlink:href="#DejaVuSans-Bold-48"/>
      </g>
     </g>
    </g>
    <g id="xtick_6">
     <g id="line2d_6">
      <defs>
       <path d="M 0 0 
L 0 5 
" id="me9680b6b09" style="stroke:#000000;stroke-width:2;"/>
      </defs>
      <g>
       <use style="stroke:#000000;stroke-width:2;" x="242.326982" xlink:href="#me9680b6b09" y="567"/>
      </g>
     </g>
    </g>
    <g id="xtick_7">
     <g id="line2d_7">
      <g>
       <use style="stroke:#000000;stroke-width:2;" x="288.628386" xlink:href="#me9680b6b09" y="567"/>
      </g>
     </g>
    </g>
    <g id="xtick_8">
     <g id="line2d_8">
      <g>
       <use style="stroke:#000000;stroke-width:2;" x="334.929789" xlink:href="#me9680b6b09" y="567"/>
      </g>
     </g>
    </g>
    <g id="xtick_9">
     <g id="line2d_9">
      <g>
       <use style="stroke:#000000;stroke-width:2;" x="427.532595" xlink:href="#me9680b6b09" y="567"/>
      </g>
     </g>
    </g>
    <g id="xtick_10">
     <g id="line2d_10">
      <g>
       <use style="stroke:#000000;stroke-width:2;" x="473.833999" xlink:href="#me9680b6b09" y="567"/>
      </g>
     </g>
    </g>
    <g id="xtick_11">
     <g id="line2d_11">
      <g>
       <use style="stroke:#000000;stroke-width:2;" x="520.135402" xlink:href="#me9680b6b09" y="567"/>
      </g>
     </g>
    </g>
    <g id="xtick_12">
     <g id="line2d_12">
      <g>
       <use style="stroke:#000000;stroke-width:2;" x="612.738209" xlink:href="#me9680b6b09" y="567"/>
      </g>
     </g>
    </g>
    <g id="xtick_13">
     <g id="line2d_13">
      <g>
       <use style="stroke:#000000;stroke-width:2;" x="659.039612" xlink:href="#me9680b6b09" y="567"/>
      </g>
     </g>
    </g>
    <g id="xtick_14">
     <g id="line2d_14">
      <g>
       <use style="stroke:#000000;stroke-width:2;" x="705.341015" xlink:href="#me9680b6b09" y="567"/>
      </g>
     </g>
    </g>
    <g id="xtick_15">
     <g id="line2d_15">
      <g>
       <use style="stroke:#000000;stroke-width:2;" x="797.943822" xlink:href="#me9680b6b09" y="567"/>
      </g>
     </g>
    </g>
    <g id="xtick_16">
     <g id="line2d_16">
      <g>
       <use style="stroke:#000000;stroke-width:2;" x="844.245225" xlink:href="#me9680b6b09" y="567"/>
      </g>
     </g>
    </g>
    <g id="xtick_17">
     <g id="line2d_17">
      <g>
       <use style="stroke:#000000;stroke-width:2;" x="890.546628" xlink:href="#me9680b6b09" y="567"/>
      </g>
     </g>
    </g>
    <g id="xtick_18">
     <g id="line2d_18">
      <g>
       <use style="stroke:#000000;stroke-width:2;" x="983.149435" xlink:href="#me9680b6b09" y="567"/>
      </g>
     </g>
    </g>
    <g id="xtick_19">
     <g id="line2d_19">
      <g>
       <use style="stroke:#000000;stroke-width:2;" x="1029.450838" xlink:href="#me9680b6b09" y="567"/>
      </g>
     </g>
    </g>
    <g id="xtick_20">
     <g id="line2d_20">
      <g>
       <use style="stroke:#000000;stroke-width:2;" x="1075.752242" xlink:href="#me9680b6b09" y="567"/>
      </g>
     </g>
    </g>
    <g id="text_6">
     <!-- Sequence length -->
     <g transform="translate(485.189063 628.587188)scale(0.3 -0.3)">
      <defs>
       <path d="M 59.90625 70.609375 
L 59.90625 55.171875 
Q 53.90625 57.859375 48.1875 59.21875 
Q 42.484375 60.59375 37.40625 60.59375 
Q 30.671875 60.59375 27.4375 58.734375 
Q 24.21875 56.890625 24.21875 52.984375 
Q 24.21875 50.046875 26.390625 48.40625 
Q 28.5625 46.78125 34.28125 45.609375 
L 42.28125 44 
Q 54.4375 41.546875 59.5625 36.5625 
Q 64.703125 31.59375 64.703125 22.40625 
Q 64.703125 10.359375 57.546875 4.46875 
Q 50.390625 -1.421875 35.6875 -1.421875 
Q 28.765625 -1.421875 21.78125 -0.09375 
Q 14.796875 1.21875 7.8125 3.8125 
L 7.8125 19.671875 
Q 14.796875 15.96875 21.3125 14.078125 
Q 27.828125 12.203125 33.890625 12.203125 
Q 40.046875 12.203125 43.3125 14.25 
Q 46.578125 16.3125 46.578125 20.125 
Q 46.578125 23.53125 44.359375 25.390625 
Q 42.140625 27.25 35.5 28.71875 
L 28.21875 30.328125 
Q 17.28125 32.671875 12.21875 37.796875 
Q 7.171875 42.921875 7.171875 51.609375 
Q 7.171875 62.5 14.203125 68.359375 
Q 21.234375 74.21875 34.421875 74.21875 
Q 40.4375 74.21875 46.78125 73.3125 
Q 53.125 72.40625 59.90625 70.609375 
z
" id="DejaVuSans-Bold-83"/>
       <path d="M 62.984375 27.484375 
L 62.984375 22.515625 
L 22.125 22.515625 
Q 22.75 16.359375 26.5625 13.28125 
Q 30.375 10.203125 37.203125 10.203125 
Q 42.71875 10.203125 48.5 11.84375 
Q 54.296875 13.484375 60.40625 16.796875 
L 60.40625 3.328125 
Q 54.203125 0.984375 48 -0.21875 
Q 41.796875 -1.421875 35.59375 -1.421875 
Q 20.75 -1.421875 12.515625 6.125 
Q 4.296875 13.671875 4.296875 27.296875 
Q 4.296875 40.671875 12.375 48.328125 
Q 20.453125 56 34.625 56 
Q 47.515625 56 55.25 48.234375 
Q 62.984375 40.484375 62.984375 27.484375 
z
M 45.015625 33.296875 
Q 45.015625 38.28125 42.109375 41.328125 
Q 39.203125 44.390625 34.515625 44.390625 
Q 29.4375 44.390625 26.265625 41.53125 
Q 23.09375 38.671875 22.3125 33.296875 
z
" id="DejaVuSans-Bold-101"/>
       <path d="M 34.078125 43.3125 
Q 28.515625 43.3125 25.5625 39.203125 
Q 22.609375 35.109375 22.609375 27.296875 
Q 22.609375 19.484375 25.5625 15.375 
Q 28.515625 11.28125 34.078125 11.28125 
Q 39.703125 11.28125 42.65625 15.375 
Q 45.609375 19.484375 45.609375 27.296875 
Q 45.609375 35.109375 42.65625 39.203125 
Q 39.703125 43.3125 34.078125 43.3125 
z
M 45.609375 7.90625 
Q 42 3.078125 37.640625 0.828125 
Q 33.296875 -1.421875 27.59375 -1.421875 
Q 17.484375 -1.421875 10.984375 6.609375 
Q 4.5 14.65625 4.5 27.296875 
Q 4.5 39.9375 10.984375 47.921875 
Q 17.484375 55.90625 27.59375 55.90625 
Q 33.296875 55.90625 37.640625 53.65625 
Q 42 51.421875 45.609375 46.578125 
L 45.609375 54.6875 
L 63.1875 54.6875 
L 63.1875 -20.796875 
L 45.609375 -20.796875 
z
" id="DejaVuSans-Bold-113"/>
       <path d="M 7.8125 21.296875 
L 7.8125 54.6875 
L 25.390625 54.6875 
L 25.390625 49.21875 
Q 25.390625 44.78125 25.34375 38.0625 
Q 25.296875 31.34375 25.296875 29.109375 
Q 25.296875 22.515625 25.640625 19.609375 
Q 25.984375 16.703125 26.8125 15.375 
Q 27.875 13.671875 29.609375 12.734375 
Q 31.34375 11.8125 33.59375 11.8125 
Q 39.0625 11.8125 42.1875 16.015625 
Q 45.3125 20.21875 45.3125 27.6875 
L 45.3125 54.6875 
L 62.796875 54.6875 
L 62.796875 0 
L 45.3125 0 
L 45.3125 7.90625 
Q 41.359375 3.125 36.9375 0.84375 
Q 32.515625 -1.421875 27.203125 -1.421875 
Q 17.71875 -1.421875 12.765625 4.390625 
Q 7.8125 10.203125 7.8125 21.296875 
z
" id="DejaVuSans-Bold-117"/>
       <path d="M 63.375 33.296875 
L 63.375 0 
L 45.796875 0 
L 45.796875 5.421875 
L 45.796875 25.484375 
Q 45.796875 32.5625 45.484375 35.25 
Q 45.171875 37.9375 44.390625 39.203125 
Q 43.359375 40.921875 41.59375 41.875 
Q 39.84375 42.828125 37.59375 42.828125 
Q 32.125 42.828125 29 38.59375 
Q 25.875 34.375 25.875 26.90625 
L 25.875 0 
L 8.40625 0 
L 8.40625 54.6875 
L 25.875 54.6875 
L 25.875 46.6875 
Q 29.828125 51.46875 34.265625 53.734375 
Q 38.71875 56 44.09375 56 
Q 53.5625 56 58.46875 50.1875 
Q 63.375 44.390625 63.375 33.296875 
z
" id="DejaVuSans-Bold-110"/>
       <path d="M 52.59375 52.984375 
L 52.59375 38.71875 
Q 49.03125 41.15625 45.4375 42.328125 
Q 41.84375 43.5 37.984375 43.5 
Q 30.671875 43.5 26.59375 39.234375 
Q 22.515625 34.96875 22.515625 27.296875 
Q 22.515625 19.625 26.59375 15.34375 
Q 30.671875 11.078125 37.984375 11.078125 
Q 42.09375 11.078125 45.78125 12.296875 
Q 49.46875 13.53125 52.59375 15.921875 
L 52.59375 1.609375 
Q 48.484375 0.09375 44.265625 -0.65625 
Q 40.046875 -1.421875 35.796875 -1.421875 
Q 21 -1.421875 12.640625 6.171875 
Q 4.296875 13.765625 4.296875 27.296875 
Q 4.296875 40.828125 12.640625 48.40625 
Q 21 56 35.796875 56 
Q 40.09375 56 44.265625 55.25 
Q 48.4375 54.5 52.59375 52.984375 
z
" id="DejaVuSans-Bold-99"/>
       <path id="DejaVuSans-Bold-32"/>
       <path d="M 8.40625 75.984375 
L 25.875 75.984375 
L 25.875 0 
L 8.40625 0 
z
" id="DejaVuSans-Bold-108"/>
       <path d="M 45.609375 9.28125 
Q 42 4.5 37.640625 2.25 
Q 33.296875 0 27.59375 0 
Q 17.578125 0 11.03125 7.875 
Q 4.5 15.765625 4.5 27.984375 
Q 4.5 40.234375 11.03125 48.0625 
Q 17.578125 55.90625 27.59375 55.90625 
Q 33.296875 55.90625 37.640625 53.65625 
Q 42 51.421875 45.609375 46.578125 
L 45.609375 54.6875 
L 63.1875 54.6875 
L 63.1875 5.515625 
Q 63.1875 -7.671875 54.859375 -14.625 
Q 46.53125 -21.578125 30.71875 -21.578125 
Q 25.59375 -21.578125 20.796875 -20.796875 
Q 16.015625 -20.015625 11.1875 -18.40625 
L 11.1875 -4.78125 
Q 15.765625 -7.421875 20.15625 -8.71875 
Q 24.5625 -10.015625 29 -10.015625 
Q 37.59375 -10.015625 41.59375 -6.25 
Q 45.609375 -2.484375 45.609375 5.515625 
z
M 34.078125 43.3125 
Q 28.65625 43.3125 25.625 39.296875 
Q 22.609375 35.296875 22.609375 27.984375 
Q 22.609375 20.453125 25.53125 16.578125 
Q 28.46875 12.703125 34.078125 12.703125 
Q 39.546875 12.703125 42.578125 16.703125 
Q 45.609375 20.703125 45.609375 27.984375 
Q 45.609375 35.296875 42.578125 39.296875 
Q 39.546875 43.3125 34.078125 43.3125 
z
" id="DejaVuSans-Bold-103"/>
       <path d="M 27.484375 70.21875 
L 27.484375 54.6875 
L 45.515625 54.6875 
L 45.515625 42.1875 
L 27.484375 42.1875 
L 27.484375 19 
Q 27.484375 15.1875 29 13.84375 
Q 30.515625 12.5 35.015625 12.5 
L 44 12.5 
L 44 0 
L 29 0 
Q 18.65625 0 14.328125 4.3125 
Q 10.015625 8.640625 10.015625 19 
L 10.015625 42.1875 
L 1.3125 42.1875 
L 1.3125 54.6875 
L 10.015625 54.6875 
L 10.015625 70.21875 
z
" id="DejaVuSans-Bold-116"/>
       <path d="M 63.375 33.296875 
L 63.375 0 
L 45.796875 0 
L 45.796875 5.421875 
L 45.796875 25.390625 
Q 45.796875 32.5625 45.484375 35.25 
Q 45.171875 37.9375 44.390625 39.203125 
Q 43.359375 40.921875 41.59375 41.875 
Q 39.84375 42.828125 37.59375 42.828125 
Q 32.125 42.828125 29 38.59375 
Q 25.875 34.375 25.875 26.90625 
L 25.875 0 
L 8.40625 0 
L 8.40625 75.984375 
L 25.875 75.984375 
L 25.875 46.6875 
Q 29.828125 51.46875 34.265625 53.734375 
Q 38.71875 56 44.09375 56 
Q 53.5625 56 58.46875 50.1875 
Q 63.375 44.390625 63.375 33.296875 
z
" id="DejaVuSans-Bold-104"/>
      </defs>
      <use xlink:href="#DejaVuSans-Bold-83"/>
      <use x="72.021484" xlink:href="#DejaVuSans-Bold-101"/>
      <use x="139.84375" xlink:href="#DejaVuSans-Bold-113"/>
      <use x="211.425781" xlink:href="#DejaVuSans-Bold-117"/>
      <use x="282.617188" xlink:href="#DejaVuSans-Bold-101"/>
      <use x="350.439453" xlink:href="#DejaVuSans-Bold-110"/>
      <use x="421.630859" xlink:href="#DejaVuSans-Bold-99"/>
      <use x="480.908203" xlink:href="#DejaVuSans-Bold-101"/>
      <use x="548.730469" xlink:href="#DejaVuSans-Bold-32"/>
      <use x="583.544922" xlink:href="#DejaVuSans-Bold-108"/>
      <use x="617.822266" xlink:href="#DejaVuSans-Bold-101"/>
      <use x="685.644531" xlink:href="#DejaVuSans-Bold-110"/>
      <use x="756.835938" xlink:href="#DejaVuSans-Bold-103"/>
      <use x="828.417969" xlink:href="#DejaVuSans-Bold-116"/>
      <use x="876.220703" xlink:href="#DejaVuSans-Bold-104"/>
     </g>
    </g>
   </g>
   <g id="matplotlib.axis_2">
    <g id="ytick_1">
     <g id="line2d_21">
      <defs>
       <path d="M 0 0 
L -10 0 
" id="mca126e1319" style="stroke:#000000;stroke-width:3;"/>
      </defs>
      <g>
       <use style="stroke:#000000;stroke-width:3;" x="153" xlink:href="#mca126e1319" y="567"/>
      </g>
     </g>
     <g id="text_7">
      <!-- 0 -->
      <g transform="translate(124.192813 575.358281)scale(0.22 -0.22)">
       <use xlink:href="#DejaVuSans-Bold-48"/>
      </g>
     </g>
    </g>
    <g id="ytick_2">
     <g id="line2d_22">
      <g>
       <use style="stroke:#000000;stroke-width:3;" x="153" xlink:href="#mca126e1319" y="510.1777"/>
      </g>
     </g>
     <g id="text_8">
      <!-- 50 -->
      <g transform="translate(108.885625 518.535982)scale(0.22 -0.22)">
       <defs>
        <path d="M 10.59375 72.90625 
L 57.328125 72.90625 
L 57.328125 59.078125 
L 25.59375 59.078125 
L 25.59375 47.796875 
Q 27.734375 48.390625 29.90625 48.703125 
Q 32.078125 49.03125 34.421875 49.03125 
Q 47.75 49.03125 55.171875 42.359375 
Q 62.59375 35.6875 62.59375 23.78125 
Q 62.59375 11.96875 54.515625 5.265625 
Q 46.4375 -1.421875 32.078125 -1.421875 
Q 25.875 -1.421875 19.796875 -0.21875 
Q 13.71875 0.984375 7.71875 3.421875 
L 7.71875 18.21875 
Q 13.671875 14.796875 19.015625 13.078125 
Q 24.359375 11.375 29.109375 11.375 
Q 35.9375 11.375 39.859375 14.71875 
Q 43.796875 18.0625 43.796875 23.78125 
Q 43.796875 29.546875 39.859375 32.859375 
Q 35.9375 36.1875 29.109375 36.1875 
Q 25.046875 36.1875 20.453125 35.125 
Q 15.875 34.078125 10.59375 31.890625 
z
" id="DejaVuSans-Bold-53"/>
       </defs>
       <use xlink:href="#DejaVuSans-Bold-53"/>
       <use x="69.580078" xlink:href="#DejaVuSans-Bold-48"/>
      </g>
     </g>
    </g>
    <g id="ytick_3">
     <g id="line2d_23">
      <g>
       <use style="stroke:#000000;stroke-width:3;" x="153" xlink:href="#mca126e1319" y="453.355401"/>
      </g>
     </g>
     <g id="text_9">
      <!-- 100 -->
      <g transform="translate(93.578438 461.713682)scale(0.22 -0.22)">
       <defs>
        <path d="M 11.71875 12.984375 
L 28.328125 12.984375 
L 28.328125 60.109375 
L 11.28125 56.59375 
L 11.28125 69.390625 
L 28.21875 72.90625 
L 46.09375 72.90625 
L 46.09375 12.984375 
L 62.703125 12.984375 
L 62.703125 0 
L 11.71875 0 
z
" id="DejaVuSans-Bold-49"/>
       </defs>
       <use xlink:href="#DejaVuSans-Bold-49"/>
       <use x="69.580078" xlink:href="#DejaVuSans-Bold-48"/>
       <use x="139.160156" xlink:href="#DejaVuSans-Bold-48"/>
      </g>
     </g>
    </g>
    <g id="ytick_4">
     <g id="line2d_24">
      <g>
       <use style="stroke:#000000;stroke-width:3;" x="153" xlink:href="#mca126e1319" y="396.533101"/>
      </g>
     </g>
     <g id="text_10">
      <!-- 150 -->
      <g transform="translate(93.578438 404.891382)scale(0.22 -0.22)">
       <use xlink:href="#DejaVuSans-Bold-49"/>
       <use x="69.580078" xlink:href="#DejaVuSans-Bold-53"/>
       <use x="139.160156" xlink:href="#DejaVuSans-Bold-48"/>
      </g>
     </g>
    </g>
    <g id="ytick_5">
     <g id="line2d_25">
      <g>
       <use style="stroke:#000000;stroke-width:3;" x="153" xlink:href="#mca126e1319" y="339.710801"/>
      </g>
     </g>
     <g id="text_11">
      <!-- 200 -->
      <g transform="translate(93.578438 348.069083)scale(0.22 -0.22)">
       <use xlink:href="#DejaVuSans-Bold-50"/>
       <use x="69.580078" xlink:href="#DejaVuSans-Bold-48"/>
       <use x="139.160156" xlink:href="#DejaVuSans-Bold-48"/>
      </g>
     </g>
    </g>
    <g id="ytick_6">
     <g id="line2d_26">
      <g>
       <use style="stroke:#000000;stroke-width:3;" x="153" xlink:href="#mca126e1319" y="282.888502"/>
      </g>
     </g>
     <g id="text_12">
      <!-- 250 -->
      <g transform="translate(93.578438 291.246783)scale(0.22 -0.22)">
       <use xlink:href="#DejaVuSans-Bold-50"/>
       <use x="69.580078" xlink:href="#DejaVuSans-Bold-53"/>
       <use x="139.160156" xlink:href="#DejaVuSans-Bold-48"/>
      </g>
     </g>
    </g>
    <g id="ytick_7">
     <g id="line2d_27">
      <g>
       <use style="stroke:#000000;stroke-width:3;" x="153" xlink:href="#mca126e1319" y="226.066202"/>
      </g>
     </g>
     <g id="text_13">
      <!-- 300 -->
      <g transform="translate(93.578438 234.424483)scale(0.22 -0.22)">
       <defs>
        <path d="M 46.578125 39.3125 
Q 53.953125 37.40625 57.78125 32.6875 
Q 61.625 27.984375 61.625 20.703125 
Q 61.625 9.859375 53.3125 4.21875 
Q 45.015625 -1.421875 29.109375 -1.421875 
Q 23.484375 -1.421875 17.84375 -0.515625 
Q 12.203125 0.390625 6.6875 2.203125 
L 6.6875 16.703125 
Q 11.96875 14.0625 17.15625 12.71875 
Q 22.359375 11.375 27.390625 11.375 
Q 34.859375 11.375 38.84375 13.953125 
Q 42.828125 16.546875 42.828125 21.390625 
Q 42.828125 26.375 38.75 28.9375 
Q 34.671875 31.5 26.703125 31.5 
L 19.1875 31.5 
L 19.1875 43.609375 
L 27.09375 43.609375 
Q 34.1875 43.609375 37.640625 45.828125 
Q 41.109375 48.046875 41.109375 52.59375 
Q 41.109375 56.78125 37.734375 59.078125 
Q 34.375 61.375 28.21875 61.375 
Q 23.6875 61.375 19.046875 60.34375 
Q 14.40625 59.328125 9.8125 57.328125 
L 9.8125 71.09375 
Q 15.375 72.65625 20.84375 73.4375 
Q 26.3125 74.21875 31.59375 74.21875 
Q 45.796875 74.21875 52.84375 69.546875 
Q 59.90625 64.890625 59.90625 55.515625 
Q 59.90625 49.125 56.53125 45.046875 
Q 53.171875 40.96875 46.578125 39.3125 
z
" id="DejaVuSans-Bold-51"/>
       </defs>
       <use xlink:href="#DejaVuSans-Bold-51"/>
       <use x="69.580078" xlink:href="#DejaVuSans-Bold-48"/>
       <use x="139.160156" xlink:href="#DejaVuSans-Bold-48"/>
      </g>
     </g>
    </g>
    <g id="ytick_8">
     <g id="line2d_28">
      <g>
       <use style="stroke:#000000;stroke-width:3;" x="153" xlink:href="#mca126e1319" y="169.243902"/>
      </g>
     </g>
     <g id="text_14">
      <!-- 350 -->
      <g transform="translate(93.578438 177.602184)scale(0.22 -0.22)">
       <use xlink:href="#DejaVuSans-Bold-51"/>
       <use x="69.580078" xlink:href="#DejaVuSans-Bold-53"/>
       <use x="139.160156" xlink:href="#DejaVuSans-Bold-48"/>
      </g>
     </g>
    </g>
    <g id="ytick_9">
     <g id="line2d_29">
      <g>
       <use style="stroke:#000000;stroke-width:3;" x="153" xlink:href="#mca126e1319" y="112.421603"/>
      </g>
     </g>
     <g id="text_15">
      <!-- 400 -->
      <g transform="translate(93.578438 120.779884)scale(0.22 -0.22)">
       <use xlink:href="#DejaVuSans-Bold-52"/>
       <use x="69.580078" xlink:href="#DejaVuSans-Bold-48"/>
       <use x="139.160156" xlink:href="#DejaVuSans-Bold-48"/>
      </g>
     </g>
    </g>
    <g id="ytick_10">
     <g id="line2d_30">
      <defs>
       <path d="M 0 0 
L -5 0 
" id="m0e645fac29" style="stroke:#000000;stroke-width:2;"/>
      </defs>
      <g>
       <use style="stroke:#000000;stroke-width:2;" x="153" xlink:href="#m0e645fac29" y="555.63554"/>
      </g>
     </g>
    </g>
    <g id="ytick_11">
     <g id="line2d_31">
      <g>
       <use style="stroke:#000000;stroke-width:2;" x="153" xlink:href="#m0e645fac29" y="544.27108"/>
      </g>
     </g>
    </g>
    <g id="ytick_12">
     <g id="line2d_32">
      <g>
       <use style="stroke:#000000;stroke-width:2;" x="153" xlink:href="#m0e645fac29" y="532.90662"/>
      </g>
     </g>
    </g>
    <g id="ytick_13">
     <g id="line2d_33">
      <g>
       <use style="stroke:#000000;stroke-width:2;" x="153" xlink:href="#m0e645fac29" y="521.54216"/>
      </g>
     </g>
    </g>
    <g id="ytick_14">
     <g id="line2d_34">
      <g>
       <use style="stroke:#000000;stroke-width:2;" x="153" xlink:href="#m0e645fac29" y="498.81324"/>
      </g>
     </g>
    </g>
    <g id="ytick_15">
     <g id="line2d_35">
      <g>
       <use style="stroke:#000000;stroke-width:2;" x="153" xlink:href="#m0e645fac29" y="487.44878"/>
      </g>
     </g>
    </g>
    <g id="ytick_16">
     <g id="line2d_36">
      <g>
       <use style="stroke:#000000;stroke-width:2;" x="153" xlink:href="#m0e645fac29" y="476.084321"/>
      </g>
     </g>
    </g>
    <g id="ytick_17">
     <g id="line2d_37">
      <g>
       <use style="stroke:#000000;stroke-width:2;" x="153" xlink:href="#m0e645fac29" y="464.719861"/>
      </g>
     </g>
    </g>
    <g id="ytick_18">
     <g id="line2d_38">
      <g>
       <use style="stroke:#000000;stroke-width:2;" x="153" xlink:href="#m0e645fac29" y="441.990941"/>
      </g>
     </g>
    </g>
    <g id="ytick_19">
     <g id="line2d_39">
      <g>
       <use style="stroke:#000000;stroke-width:2;" x="153" xlink:href="#m0e645fac29" y="430.626481"/>
      </g>
     </g>
    </g>
    <g id="ytick_20">
     <g id="line2d_40">
      <g>
       <use style="stroke:#000000;stroke-width:2;" x="153" xlink:href="#m0e645fac29" y="419.262021"/>
      </g>
     </g>
    </g>
    <g id="ytick_21">
     <g id="line2d_41">
      <g>
       <use style="stroke:#000000;stroke-width:2;" x="153" xlink:href="#m0e645fac29" y="407.897561"/>
      </g>
     </g>
    </g>
    <g id="ytick_22">
     <g id="line2d_42">
      <g>
       <use style="stroke:#000000;stroke-width:2;" x="153" xlink:href="#m0e645fac29" y="385.168641"/>
      </g>
     </g>
    </g>
    <g id="ytick_23">
     <g id="line2d_43">
      <g>
       <use style="stroke:#000000;stroke-width:2;" x="153" xlink:href="#m0e645fac29" y="373.804181"/>
      </g>
     </g>
    </g>
    <g id="ytick_24">
     <g id="line2d_44">
      <g>
       <use style="stroke:#000000;stroke-width:2;" x="153" xlink:href="#m0e645fac29" y="362.439721"/>
      </g>
     </g>
    </g>
    <g id="ytick_25">
     <g id="line2d_45">
      <g>
       <use style="stroke:#000000;stroke-width:2;" x="153" xlink:href="#m0e645fac29" y="351.075261"/>
      </g>
     </g>
    </g>
    <g id="ytick_26">
     <g id="line2d_46">
      <g>
       <use style="stroke:#000000;stroke-width:2;" x="153" xlink:href="#m0e645fac29" y="328.346341"/>
      </g>
     </g>
    </g>
    <g id="ytick_27">
     <g id="line2d_47">
      <g>
       <use style="stroke:#000000;stroke-width:2;" x="153" xlink:href="#m0e645fac29" y="316.981882"/>
      </g>
     </g>
    </g>
    <g id="ytick_28">
     <g id="line2d_48">
      <g>
       <use style="stroke:#000000;stroke-width:2;" x="153" xlink:href="#m0e645fac29" y="305.617422"/>
      </g>
     </g>
    </g>
    <g id="ytick_29">
     <g id="line2d_49">
      <g>
       <use style="stroke:#000000;stroke-width:2;" x="153" xlink:href="#m0e645fac29" y="294.252962"/>
      </g>
     </g>
    </g>
    <g id="ytick_30">
     <g id="line2d_50">
      <g>
       <use style="stroke:#000000;stroke-width:2;" x="153" xlink:href="#m0e645fac29" y="271.524042"/>
      </g>
     </g>
    </g>
    <g id="ytick_31">
     <g id="line2d_51">
      <g>
       <use style="stroke:#000000;stroke-width:2;" x="153" xlink:href="#m0e645fac29" y="260.159582"/>
      </g>
     </g>
    </g>
    <g id="ytick_32">
     <g id="line2d_52">
      <g>
       <use style="stroke:#000000;stroke-width:2;" x="153" xlink:href="#m0e645fac29" y="248.795122"/>
      </g>
     </g>
    </g>
    <g id="ytick_33">
     <g id="line2d_53">
      <g>
       <use style="stroke:#000000;stroke-width:2;" x="153" xlink:href="#m0e645fac29" y="237.430662"/>
      </g>
     </g>
    </g>
    <g id="ytick_34">
     <g id="line2d_54">
      <g>
       <use style="stroke:#000000;stroke-width:2;" x="153" xlink:href="#m0e645fac29" y="214.701742"/>
      </g>
     </g>
    </g>
    <g id="ytick_35">
     <g id="line2d_55">
      <g>
       <use style="stroke:#000000;stroke-width:2;" x="153" xlink:href="#m0e645fac29" y="203.337282"/>
      </g>
     </g>
    </g>
    <g id="ytick_36">
     <g id="line2d_56">
      <g>
       <use style="stroke:#000000;stroke-width:2;" x="153" xlink:href="#m0e645fac29" y="191.972822"/>
      </g>
     </g>
    </g>
    <g id="ytick_37">
     <g id="line2d_57">
      <g>
       <use style="stroke:#000000;stroke-width:2;" x="153" xlink:href="#m0e645fac29" y="180.608362"/>
      </g>
     </g>
    </g>
    <g id="ytick_38">
     <g id="line2d_58">
      <g>
       <use style="stroke:#000000;stroke-width:2;" x="153" xlink:href="#m0e645fac29" y="157.879443"/>
      </g>
     </g>
    </g>
    <g id="ytick_39">
     <g id="line2d_59">
      <g>
       <use style="stroke:#000000;stroke-width:2;" x="153" xlink:href="#m0e645fac29" y="146.514983"/>
      </g>
     </g>
    </g>
    <g id="ytick_40">
     <g id="line2d_60">
      <g>
       <use style="stroke:#000000;stroke-width:2;" x="153" xlink:href="#m0e645fac29" y="135.150523"/>
      </g>
     </g>
    </g>
    <g id="ytick_41">
     <g id="line2d_61">
      <g>
       <use style="stroke:#000000;stroke-width:2;" x="153" xlink:href="#m0e645fac29" y="123.786063"/>
      </g>
     </g>
    </g>
    <g id="ytick_42">
     <g id="line2d_62">
      <g>
       <use style="stroke:#000000;stroke-width:2;" x="153" xlink:href="#m0e645fac29" y="101.057143"/>
      </g>
     </g>
    </g>
    <g id="ytick_43">
     <g id="line2d_63">
      <g>
       <use style="stroke:#000000;stroke-width:2;" x="153" xlink:href="#m0e645fac29" y="89.692683"/>
      </g>
     </g>
    </g>
    <g id="ytick_44">
     <g id="line2d_64">
      <g>
       <use style="stroke:#000000;stroke-width:2;" x="153" xlink:href="#m0e645fac29" y="78.328223"/>
      </g>
     </g>
    </g>
    <g id="text_16">
     <!-- Count -->
     <g transform="translate(83.339375 372.219844)rotate(-90)scale(0.3 -0.3)">
      <defs>
       <path d="M 67 4 
Q 61.8125 1.3125 56.203125 -0.046875 
Q 50.59375 -1.421875 44.484375 -1.421875 
Q 26.265625 -1.421875 15.625 8.765625 
Q 4.984375 18.953125 4.984375 36.375 
Q 4.984375 53.859375 15.625 64.03125 
Q 26.265625 74.21875 44.484375 74.21875 
Q 50.59375 74.21875 56.203125 72.84375 
Q 61.8125 71.484375 67 68.796875 
L 67 53.71875 
Q 61.765625 57.28125 56.6875 58.9375 
Q 51.609375 60.59375 46 60.59375 
Q 35.9375 60.59375 30.171875 54.140625 
Q 24.421875 47.703125 24.421875 36.375 
Q 24.421875 25.09375 30.171875 18.640625 
Q 35.9375 12.203125 46 12.203125 
Q 51.609375 12.203125 56.6875 13.859375 
Q 61.765625 15.53125 67 19.09375 
z
" id="DejaVuSans-Bold-67"/>
       <path d="M 34.421875 43.5 
Q 28.609375 43.5 25.5625 39.328125 
Q 22.515625 35.15625 22.515625 27.296875 
Q 22.515625 19.4375 25.5625 15.25 
Q 28.609375 11.078125 34.421875 11.078125 
Q 40.140625 11.078125 43.15625 15.25 
Q 46.1875 19.4375 46.1875 27.296875 
Q 46.1875 35.15625 43.15625 39.328125 
Q 40.140625 43.5 34.421875 43.5 
z
M 34.421875 56 
Q 48.53125 56 56.46875 48.375 
Q 64.40625 40.765625 64.40625 27.296875 
Q 64.40625 13.8125 56.46875 6.1875 
Q 48.53125 -1.421875 34.421875 -1.421875 
Q 20.265625 -1.421875 12.28125 6.1875 
Q 4.296875 13.8125 4.296875 27.296875 
Q 4.296875 40.765625 12.28125 48.375 
Q 20.265625 56 34.421875 56 
z
" id="DejaVuSans-Bold-111"/>
      </defs>
      <use xlink:href="#DejaVuSans-Bold-67"/>
      <use x="73.388672" xlink:href="#DejaVuSans-Bold-111"/>
      <use x="142.089844" xlink:href="#DejaVuSans-Bold-117"/>
      <use x="213.28125" xlink:href="#DejaVuSans-Bold-110"/>
      <use x="284.472656" xlink:href="#DejaVuSans-Bold-116"/>
     </g>
    </g>
   </g>
   <g id="line2d_65">
    <path clip-path="url(#p8f93569b0d)" d="M 196.118182 184.644307 
L 200.451667 189.966445 
L 204.785153 212.425037 
L 209.118639 248.870255 
L 213.452124 294.554907 
L 222.119095 392.719111 
L 226.452581 436.524344 
L 230.786067 473.313664 
L 235.119552 502.308444 
L 239.453038 523.876269 
L 243.786524 539.089643 
L 248.120009 549.305433 
L 252.453495 555.852128 
L 256.78698 559.851666 
L 261.120466 562.157779 
L 265.453952 563.371584 
L 269.787437 563.894159 
L 274.120923 563.986252 
L 278.454408 563.818595 
L 287.12138 563.134454 
L 295.788351 562.426998 
L 304.455322 561.973715 
L 313.122293 561.825487 
L 326.12275 561.96982 
L 339.123207 562.334808 
L 352.123664 562.973576 
L 373.791092 564.273078 
L 386.791549 564.784774 
L 408.458977 565.315852 
L 430.126405 565.684963 
L 469.127775 565.884265 
L 495.128689 565.98212 
L 508.129146 566.295831 
L 525.463088 566.767678 
L 542.797031 566.964253 
L 581.798401 566.999969 
L 729.136912 566.907161 
L 742.137369 566.689699 
L 768.138282 566.066564 
L 776.805254 566.086074 
L 789.80571 566.37955 
L 802.806167 566.691604 
L 815.806624 566.749871 
L 828.807081 566.511644 
L 846.141023 566.092072 
L 854.807995 566.063029 
L 867.808451 566.317166 
L 889.475879 566.847501 
L 906.809822 566.980834 
L 967.47862 566.999979 
L 1015.146962 566.916609 
L 1028.147419 566.712053 
L 1058.481818 566.052892 
L 1058.481818 566.052892 
" style="fill:none;stroke:#1f77b4;stroke-linecap:square;stroke-width:1.5;"/>
   </g>
   <g id="patch_24">
    <path d="M 153 567 
L 153 77.76 
" style="fill:none;stroke:#000000;stroke-linecap:square;stroke-linejoin:miter;stroke-width:3;"/>
   </g>
   <g id="patch_25">
    <path d="M 1101.6 567 
L 1101.6 77.76 
" style="fill:none;stroke:#000000;stroke-linecap:square;stroke-linejoin:miter;stroke-width:3;"/>
   </g>
   <g id="patch_26">
    <path d="M 153 567 
L 1101.6 567 
" style="fill:none;stroke:#000000;stroke-linecap:square;stroke-linejoin:miter;stroke-width:3;"/>
   </g>
   <g id="patch_27">
    <path d="M 153 77.76 
L 1101.6 77.76 
" style="fill:none;stroke:#000000;stroke-linecap:square;stroke-linejoin:miter;stroke-width:3;"/>
   </g>
  </g>
 </g>
 <defs>
  <clipPath id="p8f93569b0d">
   <rect height="489.24" width="948.6" x="153" y="77.76"/>
  </clipPath>
 </defs>
</svg>
