<?xml version="1.0" encoding="utf-8" standalone="no"?>
<!DOCTYPE svg PUBLIC "-//W3C//DTD SVG 1.1//EN"
  "http://www.w3.org/Graphics/SVG/1.1/DTD/svg11.dtd">
<!-- Created with matplotlib (https://matplotlib.org/) -->
<svg height="1800pt" version="1.1" viewBox="0 0 1800 1800" width="1800pt" xmlns="http://www.w3.org/2000/svg" xmlns:xlink="http://www.w3.org/1999/xlink">
 <metadata>
  <rdf:RDF xmlns:cc="http://creativecommons.org/ns#" xmlns:dc="http://purl.org/dc/elements/1.1/" xmlns:rdf="http://www.w3.org/1999/02/22-rdf-syntax-ns#">
   <cc:Work>
    <dc:type rdf:resource="http://purl.org/dc/dcmitype/StillImage"/>
    <dc:date>2021-01-28T01:04:41.096506</dc:date>
    <dc:format>image/svg+xml</dc:format>
    <dc:creator>
     <cc:Agent>
      <dc:title>Matplotlib v3.3.2, https://matplotlib.org/</dc:title>
     </cc:Agent>
    </dc:creator>
   </cc:Work>
  </rdf:RDF>
 </metadata>
 <defs>
  <style type="text/css">*{stroke-linecap:butt;stroke-linejoin:round;}</style>
 </defs>
 <g id="figure_1">
  <g id="patch_1">
   <path d="M 0 1800 
L 1800 1800 
L 1800 0 
L 0 0 
z
" style="fill:none;"/>
  </g>
  <g id="axes_1">
   <g id="patch_2">
    <path d="M 1583.890105 170.478377 
L 1153.855846 170.478377 
L 1088.362381 375.721423 
" style="fill:none;stroke:#000000;stroke-linecap:round;stroke-width:2;"/>
   </g>
   <g id="text_1">
    <g id="patch_3">
     <path d="M 1587.390469 210.792283 
L 1725.329531 210.792283 
L 1725.329531 130.164471 
L 1587.390469 130.164471 
z
" style="fill:#ffffff;stroke:#000000;stroke-linejoin:miter;stroke-width:3;"/>
    </g>
    <!-- Group 1 -->
    <g transform="translate(1596.390469 161.959783)scale(0.3 -0.3)">
     <defs>
      <path d="M 59.515625 10.40625 
L 59.515625 29.984375 
L 43.40625 29.984375 
L 43.40625 38.09375 
L 69.28125 38.09375 
L 69.28125 6.78125 
Q 63.578125 2.734375 56.6875 0.65625 
Q 49.8125 -1.421875 42 -1.421875 
Q 24.90625 -1.421875 15.25 8.5625 
Q 5.609375 18.5625 5.609375 36.375 
Q 5.609375 54.25 15.25 64.234375 
Q 24.90625 74.21875 42 74.21875 
Q 49.125 74.21875 55.546875 72.453125 
Q 61.96875 70.703125 67.390625 67.28125 
L 67.390625 56.78125 
Q 61.921875 61.421875 55.765625 63.765625 
Q 49.609375 66.109375 42.828125 66.109375 
Q 29.4375 66.109375 22.71875 58.640625 
Q 16.015625 51.171875 16.015625 36.375 
Q 16.015625 21.625 22.71875 14.15625 
Q 29.4375 6.6875 42.828125 6.6875 
Q 48.046875 6.6875 52.140625 7.59375 
Q 56.25 8.5 59.515625 10.40625 
z
" id="DejaVuSans-71"/>
      <path d="M 41.109375 46.296875 
Q 39.59375 47.171875 37.8125 47.578125 
Q 36.03125 48 33.890625 48 
Q 26.265625 48 22.1875 43.046875 
Q 18.109375 38.09375 18.109375 28.8125 
L 18.109375 0 
L 9.078125 0 
L 9.078125 54.6875 
L 18.109375 54.6875 
L 18.109375 46.1875 
Q 20.953125 51.171875 25.484375 53.578125 
Q 30.03125 56 36.53125 56 
Q 37.453125 56 38.578125 55.875 
Q 39.703125 55.765625 41.0625 55.515625 
z
" id="DejaVuSans-114"/>
      <path d="M 30.609375 48.390625 
Q 23.390625 48.390625 19.1875 42.75 
Q 14.984375 37.109375 14.984375 27.296875 
Q 14.984375 17.484375 19.15625 11.84375 
Q 23.34375 6.203125 30.609375 6.203125 
Q 37.796875 6.203125 41.984375 11.859375 
Q 46.1875 17.53125 46.1875 27.296875 
Q 46.1875 37.015625 41.984375 42.703125 
Q 37.796875 48.390625 30.609375 48.390625 
z
M 30.609375 56 
Q 42.328125 56 49.015625 48.375 
Q 55.71875 40.765625 55.71875 27.296875 
Q 55.71875 13.875 49.015625 6.21875 
Q 42.328125 -1.421875 30.609375 -1.421875 
Q 18.84375 -1.421875 12.171875 6.21875 
Q 5.515625 13.875 5.515625 27.296875 
Q 5.515625 40.765625 12.171875 48.375 
Q 18.84375 56 30.609375 56 
z
" id="DejaVuSans-111"/>
      <path d="M 8.5 21.578125 
L 8.5 54.6875 
L 17.484375 54.6875 
L 17.484375 21.921875 
Q 17.484375 14.15625 20.5 10.265625 
Q 23.53125 6.390625 29.59375 6.390625 
Q 36.859375 6.390625 41.078125 11.03125 
Q 45.3125 15.671875 45.3125 23.6875 
L 45.3125 54.6875 
L 54.296875 54.6875 
L 54.296875 0 
L 45.3125 0 
L 45.3125 8.40625 
Q 42.046875 3.421875 37.71875 1 
Q 33.40625 -1.421875 27.6875 -1.421875 
Q 18.265625 -1.421875 13.375 4.4375 
Q 8.5 10.296875 8.5 21.578125 
z
M 31.109375 56 
z
" id="DejaVuSans-117"/>
      <path d="M 18.109375 8.203125 
L 18.109375 -20.796875 
L 9.078125 -20.796875 
L 9.078125 54.6875 
L 18.109375 54.6875 
L 18.109375 46.390625 
Q 20.953125 51.265625 25.265625 53.625 
Q 29.59375 56 35.59375 56 
Q 45.5625 56 51.78125 48.09375 
Q 58.015625 40.1875 58.015625 27.296875 
Q 58.015625 14.40625 51.78125 6.484375 
Q 45.5625 -1.421875 35.59375 -1.421875 
Q 29.59375 -1.421875 25.265625 0.953125 
Q 20.953125 3.328125 18.109375 8.203125 
z
M 48.6875 27.296875 
Q 48.6875 37.203125 44.609375 42.84375 
Q 40.53125 48.484375 33.40625 48.484375 
Q 26.265625 48.484375 22.1875 42.84375 
Q 18.109375 37.203125 18.109375 27.296875 
Q 18.109375 17.390625 22.1875 11.75 
Q 26.265625 6.109375 33.40625 6.109375 
Q 40.53125 6.109375 44.609375 11.75 
Q 48.6875 17.390625 48.6875 27.296875 
z
" id="DejaVuSans-112"/>
      <path id="DejaVuSans-32"/>
      <path d="M 12.40625 8.296875 
L 28.515625 8.296875 
L 28.515625 63.921875 
L 10.984375 60.40625 
L 10.984375 69.390625 
L 28.421875 72.90625 
L 38.28125 72.90625 
L 38.28125 8.296875 
L 54.390625 8.296875 
L 54.390625 0 
L 12.40625 0 
z
" id="DejaVuSans-49"/>
     </defs>
     <use xlink:href="#DejaVuSans-71"/>
     <use x="77.490234" xlink:href="#DejaVuSans-114"/>
     <use x="116.353516" xlink:href="#DejaVuSans-111"/>
     <use x="177.535156" xlink:href="#DejaVuSans-117"/>
     <use x="240.914062" xlink:href="#DejaVuSans-112"/>
     <use x="304.390625" xlink:href="#DejaVuSans-32"/>
     <use x="336.177734" xlink:href="#DejaVuSans-49"/>
    </g>
    <!-- 8.5% -->
    <g transform="translate(1618.252969 195.553221)scale(0.3 -0.3)">
     <defs>
      <path d="M 31.78125 34.625 
Q 24.75 34.625 20.71875 30.859375 
Q 16.703125 27.09375 16.703125 20.515625 
Q 16.703125 13.921875 20.71875 10.15625 
Q 24.75 6.390625 31.78125 6.390625 
Q 38.8125 6.390625 42.859375 10.171875 
Q 46.921875 13.96875 46.921875 20.515625 
Q 46.921875 27.09375 42.890625 30.859375 
Q 38.875 34.625 31.78125 34.625 
z
M 21.921875 38.8125 
Q 15.578125 40.375 12.03125 44.71875 
Q 8.5 49.078125 8.5 55.328125 
Q 8.5 64.0625 14.71875 69.140625 
Q 20.953125 74.21875 31.78125 74.21875 
Q 42.671875 74.21875 48.875 69.140625 
Q 55.078125 64.0625 55.078125 55.328125 
Q 55.078125 49.078125 51.53125 44.71875 
Q 48 40.375 41.703125 38.8125 
Q 48.828125 37.15625 52.796875 32.3125 
Q 56.78125 27.484375 56.78125 20.515625 
Q 56.78125 9.90625 50.3125 4.234375 
Q 43.84375 -1.421875 31.78125 -1.421875 
Q 19.734375 -1.421875 13.25 4.234375 
Q 6.78125 9.90625 6.78125 20.515625 
Q 6.78125 27.484375 10.78125 32.3125 
Q 14.796875 37.15625 21.921875 38.8125 
z
M 18.3125 54.390625 
Q 18.3125 48.734375 21.84375 45.5625 
Q 25.390625 42.390625 31.78125 42.390625 
Q 38.140625 42.390625 41.71875 45.5625 
Q 45.3125 48.734375 45.3125 54.390625 
Q 45.3125 60.0625 41.71875 63.234375 
Q 38.140625 66.40625 31.78125 66.40625 
Q 25.390625 66.40625 21.84375 63.234375 
Q 18.3125 60.0625 18.3125 54.390625 
z
" id="DejaVuSans-56"/>
      <path d="M 10.6875 12.40625 
L 21 12.40625 
L 21 0 
L 10.6875 0 
z
" id="DejaVuSans-46"/>
      <path d="M 10.796875 72.90625 
L 49.515625 72.90625 
L 49.515625 64.59375 
L 19.828125 64.59375 
L 19.828125 46.734375 
Q 21.96875 47.46875 24.109375 47.828125 
Q 26.265625 48.1875 28.421875 48.1875 
Q 40.625 48.1875 47.75 41.5 
Q 54.890625 34.8125 54.890625 23.390625 
Q 54.890625 11.625 47.5625 5.09375 
Q 40.234375 -1.421875 26.90625 -1.421875 
Q 22.3125 -1.421875 17.546875 -0.640625 
Q 12.796875 0.140625 7.71875 1.703125 
L 7.71875 11.625 
Q 12.109375 9.234375 16.796875 8.0625 
Q 21.484375 6.890625 26.703125 6.890625 
Q 35.15625 6.890625 40.078125 11.328125 
Q 45.015625 15.765625 45.015625 23.390625 
Q 45.015625 31 40.078125 35.4375 
Q 35.15625 39.890625 26.703125 39.890625 
Q 22.75 39.890625 18.8125 39.015625 
Q 14.890625 38.140625 10.796875 36.28125 
z
" id="DejaVuSans-53"/>
      <path d="M 72.703125 32.078125 
Q 68.453125 32.078125 66.03125 28.46875 
Q 63.625 24.859375 63.625 18.40625 
Q 63.625 12.0625 66.03125 8.421875 
Q 68.453125 4.78125 72.703125 4.78125 
Q 76.859375 4.78125 79.265625 8.421875 
Q 81.6875 12.0625 81.6875 18.40625 
Q 81.6875 24.8125 79.265625 28.4375 
Q 76.859375 32.078125 72.703125 32.078125 
z
M 72.703125 38.28125 
Q 80.421875 38.28125 84.953125 32.90625 
Q 89.5 27.546875 89.5 18.40625 
Q 89.5 9.28125 84.9375 3.921875 
Q 80.375 -1.421875 72.703125 -1.421875 
Q 64.890625 -1.421875 60.34375 3.921875 
Q 55.8125 9.28125 55.8125 18.40625 
Q 55.8125 27.59375 60.375 32.9375 
Q 64.9375 38.28125 72.703125 38.28125 
z
M 22.3125 68.015625 
Q 18.109375 68.015625 15.6875 64.375 
Q 13.28125 60.75 13.28125 54.390625 
Q 13.28125 47.953125 15.671875 44.328125 
Q 18.0625 40.71875 22.3125 40.71875 
Q 26.5625 40.71875 28.96875 44.328125 
Q 31.390625 47.953125 31.390625 54.390625 
Q 31.390625 60.6875 28.953125 64.34375 
Q 26.515625 68.015625 22.3125 68.015625 
z
M 66.40625 74.21875 
L 74.21875 74.21875 
L 28.609375 -1.421875 
L 20.796875 -1.421875 
z
M 22.3125 74.21875 
Q 30.03125 74.21875 34.609375 68.875 
Q 39.203125 63.53125 39.203125 54.390625 
Q 39.203125 45.171875 34.640625 39.84375 
Q 30.078125 34.515625 22.3125 34.515625 
Q 14.546875 34.515625 10.03125 39.859375 
Q 5.515625 45.21875 5.515625 54.390625 
Q 5.515625 63.484375 10.046875 68.84375 
Q 14.59375 74.21875 22.3125 74.21875 
z
" id="DejaVuSans-37"/>
     </defs>
     <use xlink:href="#DejaVuSans-56"/>
     <use x="63.623047" xlink:href="#DejaVuSans-46"/>
     <use x="95.410156" xlink:href="#DejaVuSans-53"/>
     <use x="159.033203" xlink:href="#DejaVuSans-37"/>
    </g>
   </g>
   <g id="patch_4">
    <path d="M 261.110933 153.685654 
L 752.519537 153.685654 
L 800.638527 363.682476 
" style="fill:none;stroke:#000000;stroke-linecap:round;stroke-width:2;"/>
   </g>
   <g id="text_2">
    <g id="patch_5">
     <path d="M 119.670469 193.99956 
L 257.609531 193.99956 
L 257.609531 113.371748 
L 119.670469 113.371748 
z
" style="fill:#ffffff;stroke:#000000;stroke-linejoin:miter;stroke-width:3;"/>
    </g>
    <!-- Group 2 -->
    <g transform="translate(128.670469 145.16706)scale(0.3 -0.3)">
     <defs>
      <path d="M 19.1875 8.296875 
L 53.609375 8.296875 
L 53.609375 0 
L 7.328125 0 
L 7.328125 8.296875 
Q 12.9375 14.109375 22.625 23.890625 
Q 32.328125 33.6875 34.8125 36.53125 
Q 39.546875 41.84375 41.421875 45.53125 
Q 43.3125 49.21875 43.3125 52.78125 
Q 43.3125 58.59375 39.234375 62.25 
Q 35.15625 65.921875 28.609375 65.921875 
Q 23.96875 65.921875 18.8125 64.3125 
Q 13.671875 62.703125 7.8125 59.421875 
L 7.8125 69.390625 
Q 13.765625 71.78125 18.9375 73 
Q 24.125 74.21875 28.421875 74.21875 
Q 39.75 74.21875 46.484375 68.546875 
Q 53.21875 62.890625 53.21875 53.421875 
Q 53.21875 48.921875 51.53125 44.890625 
Q 49.859375 40.875 45.40625 35.40625 
Q 44.1875 33.984375 37.640625 27.21875 
Q 31.109375 20.453125 19.1875 8.296875 
z
" id="DejaVuSans-50"/>
     </defs>
     <use xlink:href="#DejaVuSans-71"/>
     <use x="77.490234" xlink:href="#DejaVuSans-114"/>
     <use x="116.353516" xlink:href="#DejaVuSans-111"/>
     <use x="177.535156" xlink:href="#DejaVuSans-117"/>
     <use x="240.914062" xlink:href="#DejaVuSans-112"/>
     <use x="304.390625" xlink:href="#DejaVuSans-32"/>
     <use x="336.177734" xlink:href="#DejaVuSans-50"/>
    </g>
    <!-- 8.5% -->
    <g transform="translate(150.532969 178.760498)scale(0.3 -0.3)">
     <use xlink:href="#DejaVuSans-56"/>
     <use x="63.623047" xlink:href="#DejaVuSans-46"/>
     <use x="95.410156" xlink:href="#DejaVuSans-53"/>
     <use x="159.033203" xlink:href="#DejaVuSans-37"/>
    </g>
   </g>
   <g id="patch_6">
    <path d="M 261.111906 272.501849 
L 485.401401 272.501849 
L 609.137639 448.863538 
" style="fill:none;stroke:#000000;stroke-linecap:round;stroke-width:2;"/>
   </g>
   <g id="text_3">
    <g id="patch_7">
     <path d="M 119.670469 312.815755 
L 257.609531 312.815755 
L 257.609531 232.187942 
L 119.670469 232.187942 
z
" style="fill:#ffffff;stroke:#000000;stroke-linejoin:miter;stroke-width:3;"/>
    </g>
    <!-- Group 3 -->
    <g transform="translate(128.670469 263.983255)scale(0.3 -0.3)">
     <defs>
      <path d="M 40.578125 39.3125 
Q 47.65625 37.796875 51.625 33 
Q 55.609375 28.21875 55.609375 21.1875 
Q 55.609375 10.40625 48.1875 4.484375 
Q 40.765625 -1.421875 27.09375 -1.421875 
Q 22.515625 -1.421875 17.65625 -0.515625 
Q 12.796875 0.390625 7.625 2.203125 
L 7.625 11.71875 
Q 11.71875 9.328125 16.59375 8.109375 
Q 21.484375 6.890625 26.8125 6.890625 
Q 36.078125 6.890625 40.9375 10.546875 
Q 45.796875 14.203125 45.796875 21.1875 
Q 45.796875 27.640625 41.28125 31.265625 
Q 36.765625 34.90625 28.71875 34.90625 
L 20.21875 34.90625 
L 20.21875 43.015625 
L 29.109375 43.015625 
Q 36.375 43.015625 40.234375 45.921875 
Q 44.09375 48.828125 44.09375 54.296875 
Q 44.09375 59.90625 40.109375 62.90625 
Q 36.140625 65.921875 28.71875 65.921875 
Q 24.65625 65.921875 20.015625 65.03125 
Q 15.375 64.15625 9.8125 62.3125 
L 9.8125 71.09375 
Q 15.4375 72.65625 20.34375 73.4375 
Q 25.25 74.21875 29.59375 74.21875 
Q 40.828125 74.21875 47.359375 69.109375 
Q 53.90625 64.015625 53.90625 55.328125 
Q 53.90625 49.265625 50.4375 45.09375 
Q 46.96875 40.921875 40.578125 39.3125 
z
" id="DejaVuSans-51"/>
     </defs>
     <use xlink:href="#DejaVuSans-71"/>
     <use x="77.490234" xlink:href="#DejaVuSans-114"/>
     <use x="116.353516" xlink:href="#DejaVuSans-111"/>
     <use x="177.535156" xlink:href="#DejaVuSans-117"/>
     <use x="240.914062" xlink:href="#DejaVuSans-112"/>
     <use x="304.390625" xlink:href="#DejaVuSans-32"/>
     <use x="336.177734" xlink:href="#DejaVuSans-51"/>
    </g>
    <!-- 3.8% -->
    <g transform="translate(150.532969 297.576692)scale(0.3 -0.3)">
     <use xlink:href="#DejaVuSans-51"/>
     <use x="63.623047" xlink:href="#DejaVuSans-46"/>
     <use x="95.410156" xlink:href="#DejaVuSans-56"/>
     <use x="159.033203" xlink:href="#DejaVuSans-37"/>
    </g>
   </g>
   <g id="patch_8">
    <path d="M 261.111918 407.524609 
L 411.347733 407.524609 
L 527.862429 518.756248 
" style="fill:none;stroke:#000000;stroke-linecap:round;stroke-width:2;"/>
   </g>
   <g id="text_4">
    <g id="patch_9">
     <path d="M 119.670469 447.838515 
L 257.609531 447.838515 
L 257.609531 367.210702 
L 119.670469 367.210702 
z
" style="fill:#ffffff;stroke:#000000;stroke-linejoin:miter;stroke-width:3;"/>
    </g>
    <!-- Group 4 -->
    <g transform="translate(128.670469 399.006015)scale(0.3 -0.3)">
     <defs>
      <path d="M 37.796875 64.3125 
L 12.890625 25.390625 
L 37.796875 25.390625 
z
M 35.203125 72.90625 
L 47.609375 72.90625 
L 47.609375 25.390625 
L 58.015625 25.390625 
L 58.015625 17.1875 
L 47.609375 17.1875 
L 47.609375 0 
L 37.796875 0 
L 37.796875 17.1875 
L 4.890625 17.1875 
L 4.890625 26.703125 
z
" id="DejaVuSans-52"/>
     </defs>
     <use xlink:href="#DejaVuSans-71"/>
     <use x="77.490234" xlink:href="#DejaVuSans-114"/>
     <use x="116.353516" xlink:href="#DejaVuSans-111"/>
     <use x="177.535156" xlink:href="#DejaVuSans-117"/>
     <use x="240.914062" xlink:href="#DejaVuSans-112"/>
     <use x="304.390625" xlink:href="#DejaVuSans-32"/>
     <use x="336.177734" xlink:href="#DejaVuSans-52"/>
    </g>
    <!-- 2.46% -->
    <g transform="translate(140.989219 432.599452)scale(0.3 -0.3)">
     <defs>
      <path d="M 33.015625 40.375 
Q 26.375 40.375 22.484375 35.828125 
Q 18.609375 31.296875 18.609375 23.390625 
Q 18.609375 15.53125 22.484375 10.953125 
Q 26.375 6.390625 33.015625 6.390625 
Q 39.65625 6.390625 43.53125 10.953125 
Q 47.40625 15.53125 47.40625 23.390625 
Q 47.40625 31.296875 43.53125 35.828125 
Q 39.65625 40.375 33.015625 40.375 
z
M 52.59375 71.296875 
L 52.59375 62.3125 
Q 48.875 64.0625 45.09375 64.984375 
Q 41.3125 65.921875 37.59375 65.921875 
Q 27.828125 65.921875 22.671875 59.328125 
Q 17.53125 52.734375 16.796875 39.40625 
Q 19.671875 43.65625 24.015625 45.921875 
Q 28.375 48.1875 33.59375 48.1875 
Q 44.578125 48.1875 50.953125 41.515625 
Q 57.328125 34.859375 57.328125 23.390625 
Q 57.328125 12.15625 50.6875 5.359375 
Q 44.046875 -1.421875 33.015625 -1.421875 
Q 20.359375 -1.421875 13.671875 8.265625 
Q 6.984375 17.96875 6.984375 36.375 
Q 6.984375 53.65625 15.1875 63.9375 
Q 23.390625 74.21875 37.203125 74.21875 
Q 40.921875 74.21875 44.703125 73.484375 
Q 48.484375 72.75 52.59375 71.296875 
z
" id="DejaVuSans-54"/>
     </defs>
     <use xlink:href="#DejaVuSans-50"/>
     <use x="63.623047" xlink:href="#DejaVuSans-46"/>
     <use x="95.410156" xlink:href="#DejaVuSans-52"/>
     <use x="159.033203" xlink:href="#DejaVuSans-54"/>
     <use x="222.65625" xlink:href="#DejaVuSans-37"/>
    </g>
   </g>
   <g id="patch_10">
    <path d="M 260.873625 544.203893 
L 440.616092 639.639672 
" style="fill:none;stroke:#000000;stroke-linecap:round;stroke-width:2;"/>
   </g>
   <g id="text_5">
    <g id="patch_11">
     <path d="M 119.670469 578.920864 
L 257.609531 578.920864 
L 257.609531 498.293052 
L 119.670469 498.293052 
z
" style="fill:#ffffff;stroke:#000000;stroke-linejoin:miter;stroke-width:3;"/>
    </g>
    <!-- Group 5 -->
    <g transform="translate(128.670469 530.088364)scale(0.3 -0.3)">
     <use xlink:href="#DejaVuSans-71"/>
     <use x="77.490234" xlink:href="#DejaVuSans-114"/>
     <use x="116.353516" xlink:href="#DejaVuSans-111"/>
     <use x="177.535156" xlink:href="#DejaVuSans-117"/>
     <use x="240.914062" xlink:href="#DejaVuSans-112"/>
     <use x="304.390625" xlink:href="#DejaVuSans-32"/>
     <use x="336.177734" xlink:href="#DejaVuSans-53"/>
    </g>
    <!-- 6.26% -->
    <g transform="translate(140.989219 563.681802)scale(0.3 -0.3)">
     <use xlink:href="#DejaVuSans-54"/>
     <use x="63.623047" xlink:href="#DejaVuSans-46"/>
     <use x="95.410156" xlink:href="#DejaVuSans-50"/>
     <use x="159.033203" xlink:href="#DejaVuSans-54"/>
     <use x="222.65625" xlink:href="#DejaVuSans-37"/>
    </g>
   </g>
   <g id="patch_12">
    <path d="M 261.104365 846.836651 
L 378.367335 855.464481 
" style="fill:none;stroke:#000000;stroke-linecap:round;stroke-width:2;"/>
   </g>
   <g id="text_6">
    <g id="patch_13">
     <path d="M 119.670469 879.970001 
L 257.609531 879.970001 
L 257.609531 799.342188 
L 119.670469 799.342188 
z
" style="fill:#ffffff;stroke:#000000;stroke-linejoin:miter;stroke-width:3;"/>
    </g>
    <!-- Group 6 -->
    <g transform="translate(128.670469 831.137501)scale(0.3 -0.3)">
     <use xlink:href="#DejaVuSans-71"/>
     <use x="77.490234" xlink:href="#DejaVuSans-114"/>
     <use x="116.353516" xlink:href="#DejaVuSans-111"/>
     <use x="177.535156" xlink:href="#DejaVuSans-117"/>
     <use x="240.914062" xlink:href="#DejaVuSans-112"/>
     <use x="304.390625" xlink:href="#DejaVuSans-32"/>
     <use x="336.177734" xlink:href="#DejaVuSans-54"/>
    </g>
    <!-- 6.94% -->
    <g transform="translate(140.989219 864.730938)scale(0.3 -0.3)">
     <defs>
      <path d="M 10.984375 1.515625 
L 10.984375 10.5 
Q 14.703125 8.734375 18.5 7.8125 
Q 22.3125 6.890625 25.984375 6.890625 
Q 35.75 6.890625 40.890625 13.453125 
Q 46.046875 20.015625 46.78125 33.40625 
Q 43.953125 29.203125 39.59375 26.953125 
Q 35.25 24.703125 29.984375 24.703125 
Q 19.046875 24.703125 12.671875 31.3125 
Q 6.296875 37.9375 6.296875 49.421875 
Q 6.296875 60.640625 12.9375 67.421875 
Q 19.578125 74.21875 30.609375 74.21875 
Q 43.265625 74.21875 49.921875 64.515625 
Q 56.59375 54.828125 56.59375 36.375 
Q 56.59375 19.140625 48.40625 8.859375 
Q 40.234375 -1.421875 26.421875 -1.421875 
Q 22.703125 -1.421875 18.890625 -0.6875 
Q 15.09375 0.046875 10.984375 1.515625 
z
M 30.609375 32.421875 
Q 37.25 32.421875 41.125 36.953125 
Q 45.015625 41.5 45.015625 49.421875 
Q 45.015625 57.28125 41.125 61.84375 
Q 37.25 66.40625 30.609375 66.40625 
Q 23.96875 66.40625 20.09375 61.84375 
Q 16.21875 57.28125 16.21875 49.421875 
Q 16.21875 41.5 20.09375 36.953125 
Q 23.96875 32.421875 30.609375 32.421875 
z
" id="DejaVuSans-57"/>
     </defs>
     <use xlink:href="#DejaVuSans-54"/>
     <use x="63.623047" xlink:href="#DejaVuSans-46"/>
     <use x="95.410156" xlink:href="#DejaVuSans-57"/>
     <use x="159.033203" xlink:href="#DejaVuSans-52"/>
     <use x="222.65625" xlink:href="#DejaVuSans-37"/>
    </g>
   </g>
   <g id="patch_14">
    <path d="M 261.105429 1142.354058 
L 377.872388 1142.354058 
L 425.561754 1120.738714 
" style="fill:none;stroke:#000000;stroke-linecap:round;stroke-width:2;"/>
   </g>
   <g id="text_7">
    <g id="patch_15">
     <path d="M 119.670469 1182.667965 
L 257.609531 1182.667965 
L 257.609531 1102.040152 
L 119.670469 1102.040152 
z
" style="fill:#ffffff;stroke:#000000;stroke-linejoin:miter;stroke-width:3;"/>
    </g>
    <!-- Group 7 -->
    <g transform="translate(128.670469 1133.835465)scale(0.3 -0.3)">
     <defs>
      <path d="M 8.203125 72.90625 
L 55.078125 72.90625 
L 55.078125 68.703125 
L 28.609375 0 
L 18.3125 0 
L 43.21875 64.59375 
L 8.203125 64.59375 
z
" id="DejaVuSans-55"/>
     </defs>
     <use xlink:href="#DejaVuSans-71"/>
     <use x="77.490234" xlink:href="#DejaVuSans-114"/>
     <use x="116.353516" xlink:href="#DejaVuSans-111"/>
     <use x="177.535156" xlink:href="#DejaVuSans-117"/>
     <use x="240.914062" xlink:href="#DejaVuSans-112"/>
     <use x="304.390625" xlink:href="#DejaVuSans-32"/>
     <use x="336.177734" xlink:href="#DejaVuSans-55"/>
    </g>
    <!-- 8.95% -->
    <g transform="translate(140.989219 1167.428902)scale(0.3 -0.3)">
     <use xlink:href="#DejaVuSans-56"/>
     <use x="63.623047" xlink:href="#DejaVuSans-46"/>
     <use x="95.410156" xlink:href="#DejaVuSans-57"/>
     <use x="159.033203" xlink:href="#DejaVuSans-53"/>
     <use x="222.65625" xlink:href="#DejaVuSans-37"/>
    </g>
   </g>
   <g id="patch_16">
    <path d="M 261.109963 1299.501733 
L 481.661298 1299.501733 
L 520.26257 1264.126027 
" style="fill:none;stroke:#000000;stroke-linecap:round;stroke-width:2;"/>
   </g>
   <g id="text_8">
    <g id="patch_17">
     <path d="M 119.670469 1339.81564 
L 257.609531 1339.81564 
L 257.609531 1259.187827 
L 119.670469 1259.187827 
z
" style="fill:#ffffff;stroke:#000000;stroke-linejoin:miter;stroke-width:3;"/>
    </g>
    <!-- Group 8 -->
    <g transform="translate(128.670469 1290.98314)scale(0.3 -0.3)">
     <use xlink:href="#DejaVuSans-71"/>
     <use x="77.490234" xlink:href="#DejaVuSans-114"/>
     <use x="116.353516" xlink:href="#DejaVuSans-111"/>
     <use x="177.535156" xlink:href="#DejaVuSans-117"/>
     <use x="240.914062" xlink:href="#DejaVuSans-112"/>
     <use x="304.390625" xlink:href="#DejaVuSans-32"/>
     <use x="336.177734" xlink:href="#DejaVuSans-56"/>
    </g>
    <!-- 1.12% -->
    <g transform="translate(140.989219 1324.576577)scale(0.3 -0.3)">
     <use xlink:href="#DejaVuSans-49"/>
     <use x="63.623047" xlink:href="#DejaVuSans-46"/>
     <use x="95.410156" xlink:href="#DejaVuSans-49"/>
     <use x="159.033203" xlink:href="#DejaVuSans-50"/>
     <use x="222.65625" xlink:href="#DejaVuSans-37"/>
    </g>
   </g>
   <g id="patch_18">
    <path d="M 261.11378 1396.991451 
L 596.82764 1396.991451 
L 625.344571 1353.079227 
" style="fill:none;stroke:#000000;stroke-linecap:round;stroke-width:2;"/>
   </g>
   <g id="text_9">
    <g id="patch_19">
     <path d="M 119.670469 1437.305357 
L 257.609531 1437.305357 
L 257.609531 1356.677545 
L 119.670469 1356.677545 
z
" style="fill:#ffffff;stroke:#000000;stroke-linejoin:miter;stroke-width:3;"/>
    </g>
    <!-- Group 9 -->
    <g transform="translate(128.670469 1388.472857)scale(0.3 -0.3)">
     <use xlink:href="#DejaVuSans-71"/>
     <use x="77.490234" xlink:href="#DejaVuSans-114"/>
     <use x="116.353516" xlink:href="#DejaVuSans-111"/>
     <use x="177.535156" xlink:href="#DejaVuSans-117"/>
     <use x="240.914062" xlink:href="#DejaVuSans-112"/>
     <use x="304.390625" xlink:href="#DejaVuSans-32"/>
     <use x="336.177734" xlink:href="#DejaVuSans-57"/>
    </g>
    <!-- 6.94% -->
    <g transform="translate(140.989219 1422.066295)scale(0.3 -0.3)">
     <use xlink:href="#DejaVuSans-54"/>
     <use x="63.623047" xlink:href="#DejaVuSans-46"/>
     <use x="95.410156" xlink:href="#DejaVuSans-57"/>
     <use x="159.033203" xlink:href="#DejaVuSans-52"/>
     <use x="222.65625" xlink:href="#DejaVuSans-37"/>
    </g>
   </g>
   <g id="patch_20">
    <path d="M 270.658161 1489.70313 
L 728.276779 1489.70313 
L 752.990204 1414.095311 
" style="fill:none;stroke:#000000;stroke-linecap:round;stroke-width:2;"/>
   </g>
   <g id="text_10">
    <g id="patch_21">
     <path d="M 110.126719 1530.017037 
L 267.153281 1530.017037 
L 267.153281 1449.389224 
L 110.126719 1449.389224 
z
" style="fill:#ffffff;stroke:#000000;stroke-linejoin:miter;stroke-width:3;"/>
    </g>
    <!-- Group 10 -->
    <g transform="translate(119.126719 1481.184537)scale(0.3 -0.3)">
     <defs>
      <path d="M 31.78125 66.40625 
Q 24.171875 66.40625 20.328125 58.90625 
Q 16.5 51.421875 16.5 36.375 
Q 16.5 21.390625 20.328125 13.890625 
Q 24.171875 6.390625 31.78125 6.390625 
Q 39.453125 6.390625 43.28125 13.890625 
Q 47.125 21.390625 47.125 36.375 
Q 47.125 51.421875 43.28125 58.90625 
Q 39.453125 66.40625 31.78125 66.40625 
z
M 31.78125 74.21875 
Q 44.046875 74.21875 50.515625 64.515625 
Q 56.984375 54.828125 56.984375 36.375 
Q 56.984375 17.96875 50.515625 8.265625 
Q 44.046875 -1.421875 31.78125 -1.421875 
Q 19.53125 -1.421875 13.0625 8.265625 
Q 6.59375 17.96875 6.59375 36.375 
Q 6.59375 54.828125 13.0625 64.515625 
Q 19.53125 74.21875 31.78125 74.21875 
z
" id="DejaVuSans-48"/>
     </defs>
     <use xlink:href="#DejaVuSans-71"/>
     <use x="77.490234" xlink:href="#DejaVuSans-114"/>
     <use x="116.353516" xlink:href="#DejaVuSans-111"/>
     <use x="177.535156" xlink:href="#DejaVuSans-117"/>
     <use x="240.914062" xlink:href="#DejaVuSans-112"/>
     <use x="304.390625" xlink:href="#DejaVuSans-32"/>
     <use x="336.177734" xlink:href="#DejaVuSans-49"/>
     <use x="399.800781" xlink:href="#DejaVuSans-48"/>
    </g>
    <!-- 1.34% -->
    <g transform="translate(140.989219 1514.777974)scale(0.3 -0.3)">
     <use xlink:href="#DejaVuSans-49"/>
     <use x="63.623047" xlink:href="#DejaVuSans-46"/>
     <use x="95.410156" xlink:href="#DejaVuSans-51"/>
     <use x="159.033203" xlink:href="#DejaVuSans-52"/>
     <use x="222.65625" xlink:href="#DejaVuSans-37"/>
    </g>
   </g>
   <g id="patch_22">
    <path d="M 270.659203 1588.589228 
L 784.572683 1588.589228 
L 816.01255 1430.602878 
" style="fill:none;stroke:#000000;stroke-linecap:round;stroke-width:2;"/>
   </g>
   <g id="text_11">
    <g id="patch_23">
     <path d="M 110.126719 1628.903134 
L 267.153281 1628.903134 
L 267.153281 1548.275321 
L 110.126719 1548.275321 
z
" style="fill:#ffffff;stroke:#000000;stroke-linejoin:miter;stroke-width:3;"/>
    </g>
    <!-- Group 11 -->
    <g transform="translate(119.126719 1580.070634)scale(0.3 -0.3)">
     <use xlink:href="#DejaVuSans-71"/>
     <use x="77.490234" xlink:href="#DejaVuSans-114"/>
     <use x="116.353516" xlink:href="#DejaVuSans-111"/>
     <use x="177.535156" xlink:href="#DejaVuSans-117"/>
     <use x="240.914062" xlink:href="#DejaVuSans-112"/>
     <use x="304.390625" xlink:href="#DejaVuSans-32"/>
     <use x="336.177734" xlink:href="#DejaVuSans-49"/>
     <use x="399.800781" xlink:href="#DejaVuSans-49"/>
    </g>
    <!-- 2.46% -->
    <g transform="translate(140.989219 1613.664071)scale(0.3 -0.3)">
     <use xlink:href="#DejaVuSans-50"/>
     <use x="63.623047" xlink:href="#DejaVuSans-46"/>
     <use x="95.410156" xlink:href="#DejaVuSans-52"/>
     <use x="159.033203" xlink:href="#DejaVuSans-54"/>
     <use x="222.65625" xlink:href="#DejaVuSans-37"/>
    </g>
   </g>
   <g id="patch_24">
    <path d="M 270.646937 1682.779875 
L 884.014078 1682.779875 
L 895.860481 1440.4462 
" style="fill:none;stroke:#000000;stroke-linecap:round;stroke-width:2;"/>
   </g>
   <g id="text_12">
    <g id="patch_25">
     <path d="M 110.126719 1723.093782 
L 267.153281 1723.093782 
L 267.153281 1642.465969 
L 110.126719 1642.465969 
z
" style="fill:#ffffff;stroke:#000000;stroke-linejoin:miter;stroke-width:3;"/>
    </g>
    <!-- Group 12 -->
    <g transform="translate(119.126719 1674.261282)scale(0.3 -0.3)">
     <use xlink:href="#DejaVuSans-71"/>
     <use x="77.490234" xlink:href="#DejaVuSans-114"/>
     <use x="116.353516" xlink:href="#DejaVuSans-111"/>
     <use x="177.535156" xlink:href="#DejaVuSans-117"/>
     <use x="240.914062" xlink:href="#DejaVuSans-112"/>
     <use x="304.390625" xlink:href="#DejaVuSans-32"/>
     <use x="336.177734" xlink:href="#DejaVuSans-49"/>
     <use x="399.800781" xlink:href="#DejaVuSans-50"/>
    </g>
    <!-- 2.24% -->
    <g transform="translate(140.989219 1707.854719)scale(0.3 -0.3)">
     <use xlink:href="#DejaVuSans-50"/>
     <use x="63.623047" xlink:href="#DejaVuSans-46"/>
     <use x="95.410156" xlink:href="#DejaVuSans-50"/>
     <use x="159.033203" xlink:href="#DejaVuSans-52"/>
     <use x="222.65625" xlink:href="#DejaVuSans-37"/>
    </g>
   </g>
   <g id="patch_26">
    <path d="M 1574.339997 1678.067623 
L 1016.72677 1678.067623 
L 987.722701 1437.184432 
" style="fill:none;stroke:#000000;stroke-linecap:round;stroke-width:2;"/>
   </g>
   <g id="text_13">
    <g id="patch_27">
     <path d="M 1577.846719 1718.381529 
L 1734.873281 1718.381529 
L 1734.873281 1637.753717 
L 1577.846719 1637.753717 
z
" style="fill:#ffffff;stroke:#000000;stroke-linejoin:miter;stroke-width:3;"/>
    </g>
    <!-- Group 13 -->
    <g transform="translate(1586.846719 1669.549029)scale(0.3 -0.3)">
     <use xlink:href="#DejaVuSans-71"/>
     <use x="77.490234" xlink:href="#DejaVuSans-114"/>
     <use x="116.353516" xlink:href="#DejaVuSans-111"/>
     <use x="177.535156" xlink:href="#DejaVuSans-117"/>
     <use x="240.914062" xlink:href="#DejaVuSans-112"/>
     <use x="304.390625" xlink:href="#DejaVuSans-32"/>
     <use x="336.177734" xlink:href="#DejaVuSans-49"/>
     <use x="399.800781" xlink:href="#DejaVuSans-51"/>
    </g>
    <!-- 3.13% -->
    <g transform="translate(1608.709219 1703.142467)scale(0.3 -0.3)">
     <use xlink:href="#DejaVuSans-51"/>
     <use x="63.623047" xlink:href="#DejaVuSans-46"/>
     <use x="95.410156" xlink:href="#DejaVuSans-49"/>
     <use x="159.033203" xlink:href="#DejaVuSans-51"/>
     <use x="222.65625" xlink:href="#DejaVuSans-37"/>
    </g>
   </g>
   <g id="patch_28">
    <path d="M 1574.343994 1584.327606 
L 1080.339003 1584.327606 
L 1044.360363 1427.312673 
" style="fill:none;stroke:#000000;stroke-linecap:round;stroke-width:2;"/>
   </g>
   <g id="text_14">
    <g id="patch_29">
     <path d="M 1577.846719 1624.641513 
L 1734.873281 1624.641513 
L 1734.873281 1544.0137 
L 1577.846719 1544.0137 
z
" style="fill:#ffffff;stroke:#000000;stroke-linejoin:miter;stroke-width:3;"/>
    </g>
    <!-- Group 14 -->
    <g transform="translate(1586.846719 1575.809013)scale(0.3 -0.3)">
     <use xlink:href="#DejaVuSans-71"/>
     <use x="77.490234" xlink:href="#DejaVuSans-114"/>
     <use x="116.353516" xlink:href="#DejaVuSans-111"/>
     <use x="177.535156" xlink:href="#DejaVuSans-117"/>
     <use x="240.914062" xlink:href="#DejaVuSans-112"/>
     <use x="304.390625" xlink:href="#DejaVuSans-32"/>
     <use x="336.177734" xlink:href="#DejaVuSans-49"/>
     <use x="399.800781" xlink:href="#DejaVuSans-52"/>
    </g>
    <!-- 0.22% -->
    <g transform="translate(1608.709219 1609.40245)scale(0.3 -0.3)">
     <use xlink:href="#DejaVuSans-48"/>
     <use x="63.623047" xlink:href="#DejaVuSans-46"/>
     <use x="95.410156" xlink:href="#DejaVuSans-50"/>
     <use x="159.033203" xlink:href="#DejaVuSans-50"/>
     <use x="222.65625" xlink:href="#DejaVuSans-37"/>
    </g>
   </g>
   <g id="patch_30">
    <path d="M 1574.34323 1485.330836 
L 1129.622196 1485.330836 
L 1103.267475 1410.279358 
" style="fill:none;stroke:#000000;stroke-linecap:round;stroke-width:2;"/>
   </g>
   <g id="text_15">
    <g id="patch_31">
     <path d="M 1577.846719 1525.644743 
L 1734.873281 1525.644743 
L 1734.873281 1445.01693 
L 1577.846719 1445.01693 
z
" style="fill:#ffffff;stroke:#000000;stroke-linejoin:miter;stroke-width:3;"/>
    </g>
    <!-- Group 15 -->
    <g transform="translate(1586.846719 1476.812243)scale(0.3 -0.3)">
     <use xlink:href="#DejaVuSans-71"/>
     <use x="77.490234" xlink:href="#DejaVuSans-114"/>
     <use x="116.353516" xlink:href="#DejaVuSans-111"/>
     <use x="177.535156" xlink:href="#DejaVuSans-117"/>
     <use x="240.914062" xlink:href="#DejaVuSans-112"/>
     <use x="304.390625" xlink:href="#DejaVuSans-32"/>
     <use x="336.177734" xlink:href="#DejaVuSans-49"/>
     <use x="399.800781" xlink:href="#DejaVuSans-53"/>
    </g>
    <!-- 3.36% -->
    <g transform="translate(1608.709219 1510.40568)scale(0.3 -0.3)">
     <use xlink:href="#DejaVuSans-51"/>
     <use x="63.623047" xlink:href="#DejaVuSans-46"/>
     <use x="95.410156" xlink:href="#DejaVuSans-51"/>
     <use x="159.033203" xlink:href="#DejaVuSans-54"/>
     <use x="222.65625" xlink:href="#DejaVuSans-37"/>
    </g>
   </g>
   <g id="patch_32">
    <path d="M 1574.347602 1392.692633 
L 1202.837822 1392.692633 
L 1190.471031 1370.759534 
" style="fill:none;stroke:#000000;stroke-linecap:round;stroke-width:2;"/>
   </g>
   <g id="text_16">
    <g id="patch_33">
     <path d="M 1577.846719 1433.006539 
L 1734.873281 1433.006539 
L 1734.873281 1352.378726 
L 1577.846719 1352.378726 
z
" style="fill:#ffffff;stroke:#000000;stroke-linejoin:miter;stroke-width:3;"/>
    </g>
    <!-- Group 16 -->
    <g transform="translate(1586.846719 1384.174039)scale(0.3 -0.3)">
     <use xlink:href="#DejaVuSans-71"/>
     <use x="77.490234" xlink:href="#DejaVuSans-114"/>
     <use x="116.353516" xlink:href="#DejaVuSans-111"/>
     <use x="177.535156" xlink:href="#DejaVuSans-117"/>
     <use x="240.914062" xlink:href="#DejaVuSans-112"/>
     <use x="304.390625" xlink:href="#DejaVuSans-32"/>
     <use x="336.177734" xlink:href="#DejaVuSans-49"/>
     <use x="399.800781" xlink:href="#DejaVuSans-54"/>
    </g>
    <!-- 2.24% -->
    <g transform="translate(1608.709219 1417.767476)scale(0.3 -0.3)">
     <use xlink:href="#DejaVuSans-50"/>
     <use x="63.623047" xlink:href="#DejaVuSans-46"/>
     <use x="95.410156" xlink:href="#DejaVuSans-50"/>
     <use x="159.033203" xlink:href="#DejaVuSans-52"/>
     <use x="222.65625" xlink:href="#DejaVuSans-37"/>
    </g>
   </g>
   <g id="patch_34">
    <path d="M 1586.665927 892.932663 
L 1468.093909 893.391003 
" style="fill:none;stroke:#000000;stroke-linecap:round;stroke-width:2;"/>
   </g>
   <g id="text_17">
    <g id="patch_35">
     <path d="M 1590.165469 932.872124 
L 1722.554531 932.872124 
L 1722.554531 852.244311 
L 1590.165469 852.244311 
z
" style="fill:#ffffff;stroke:#000000;stroke-linejoin:miter;stroke-width:3;"/>
    </g>
    <!-- Other -->
    <g transform="translate(1613.769375 884.039624)scale(0.3 -0.3)">
     <defs>
      <path d="M 39.40625 66.21875 
Q 28.65625 66.21875 22.328125 58.203125 
Q 16.015625 50.203125 16.015625 36.375 
Q 16.015625 22.609375 22.328125 14.59375 
Q 28.65625 6.59375 39.40625 6.59375 
Q 50.140625 6.59375 56.421875 14.59375 
Q 62.703125 22.609375 62.703125 36.375 
Q 62.703125 50.203125 56.421875 58.203125 
Q 50.140625 66.21875 39.40625 66.21875 
z
M 39.40625 74.21875 
Q 54.734375 74.21875 63.90625 63.9375 
Q 73.09375 53.65625 73.09375 36.375 
Q 73.09375 19.140625 63.90625 8.859375 
Q 54.734375 -1.421875 39.40625 -1.421875 
Q 24.03125 -1.421875 14.8125 8.828125 
Q 5.609375 19.09375 5.609375 36.375 
Q 5.609375 53.65625 14.8125 63.9375 
Q 24.03125 74.21875 39.40625 74.21875 
z
" id="DejaVuSans-79"/>
      <path d="M 18.3125 70.21875 
L 18.3125 54.6875 
L 36.8125 54.6875 
L 36.8125 47.703125 
L 18.3125 47.703125 
L 18.3125 18.015625 
Q 18.3125 11.328125 20.140625 9.421875 
Q 21.96875 7.515625 27.59375 7.515625 
L 36.8125 7.515625 
L 36.8125 0 
L 27.59375 0 
Q 17.1875 0 13.234375 3.875 
Q 9.28125 7.765625 9.28125 18.015625 
L 9.28125 47.703125 
L 2.6875 47.703125 
L 2.6875 54.6875 
L 9.28125 54.6875 
L 9.28125 70.21875 
z
" id="DejaVuSans-116"/>
      <path d="M 54.890625 33.015625 
L 54.890625 0 
L 45.90625 0 
L 45.90625 32.71875 
Q 45.90625 40.484375 42.875 44.328125 
Q 39.84375 48.1875 33.796875 48.1875 
Q 26.515625 48.1875 22.3125 43.546875 
Q 18.109375 38.921875 18.109375 30.90625 
L 18.109375 0 
L 9.078125 0 
L 9.078125 75.984375 
L 18.109375 75.984375 
L 18.109375 46.1875 
Q 21.34375 51.125 25.703125 53.5625 
Q 30.078125 56 35.796875 56 
Q 45.21875 56 50.046875 50.171875 
Q 54.890625 44.34375 54.890625 33.015625 
z
" id="DejaVuSans-104"/>
      <path d="M 56.203125 29.59375 
L 56.203125 25.203125 
L 14.890625 25.203125 
Q 15.484375 15.921875 20.484375 11.0625 
Q 25.484375 6.203125 34.421875 6.203125 
Q 39.59375 6.203125 44.453125 7.46875 
Q 49.3125 8.734375 54.109375 11.28125 
L 54.109375 2.78125 
Q 49.265625 0.734375 44.1875 -0.34375 
Q 39.109375 -1.421875 33.890625 -1.421875 
Q 20.796875 -1.421875 13.15625 6.1875 
Q 5.515625 13.8125 5.515625 26.8125 
Q 5.515625 40.234375 12.765625 48.109375 
Q 20.015625 56 32.328125 56 
Q 43.359375 56 49.78125 48.890625 
Q 56.203125 41.796875 56.203125 29.59375 
z
M 47.21875 32.234375 
Q 47.125 39.59375 43.09375 43.984375 
Q 39.0625 48.390625 32.421875 48.390625 
Q 24.90625 48.390625 20.390625 44.140625 
Q 15.875 39.890625 15.1875 32.171875 
z
" id="DejaVuSans-101"/>
     </defs>
     <use xlink:href="#DejaVuSans-79"/>
     <use x="78.710938" xlink:href="#DejaVuSans-116"/>
     <use x="117.919922" xlink:href="#DejaVuSans-104"/>
     <use x="181.298828" xlink:href="#DejaVuSans-101"/>
     <use x="242.822266" xlink:href="#DejaVuSans-114"/>
    </g>
    <!-- 31.54% -->
    <g transform="translate(1599.165469 917.633061)scale(0.3 -0.3)">
     <use xlink:href="#DejaVuSans-51"/>
     <use x="63.623047" xlink:href="#DejaVuSans-49"/>
     <use x="127.246094" xlink:href="#DejaVuSans-46"/>
     <use x="159.033203" xlink:href="#DejaVuSans-53"/>
     <use x="222.65625" xlink:href="#DejaVuSans-52"/>
     <use x="286.279297" xlink:href="#DejaVuSans-37"/>
    </g>
   </g>
   <g id="patch_36">
    <path d="M 1226.828488 413.70505 
C 1186.182341 387.309133 1142.188117 366.467115 1096.016885 351.733783 
C 1049.845653 337.00045 1001.910752 328.507702 953.488147 326.481602 
L 930.762709 869.606371 
L 1226.828488 413.70505 
z
" style="fill:#ff5e00;stroke:#000000;stroke-linejoin:miter;"/>
   </g>
   <g id="patch_37">
    <path d="M 939.154708 325.881862 
C 890.732103 323.855762 842.255288 328.31445 795.014653 339.139241 
C 747.774017 349.964031 702.192474 367.058018 659.483344 389.966182 
L 916.429269 869.006631 
L 939.154708 325.881862 
z
" style="fill:#cf78c0;stroke:#000000;stroke-linejoin:miter;"/>
   </g>
   <g id="patch_38">
    <path d="M 649.943411 394.209617 
C 630.859327 404.445867 612.403974 415.813388 594.676051 428.251386 
C 576.948128 440.689385 559.979296 454.175649 543.860303 468.638053 
L 906.889336 873.250066 
L 649.943411 394.209617 
z
" style="fill:#3ed8e7;stroke:#000000;stroke-linejoin:miter;"/>
   </g>
   <g id="patch_39">
    <path d="M 539.811264 472.119703 
C 529.38313 481.476111 519.32061 491.232173 509.646246 501.36603 
C 499.971883 511.499887 490.692907 522.003966 481.830107 532.854733 
L 902.840297 876.731716 
L 539.811264 472.119703 
z
" style="fill:#7cd674;stroke:#000000;stroke-linejoin:miter;"/>
   </g>
   <g id="patch_40">
    <path d="M 477.483825 538.876837 
C 454.908596 566.515794 435.10984 596.310773 418.374325 627.830218 
C 401.638809 659.349664 388.047727 692.440659 377.797932 726.62391 
L 898.494015 882.75382 
L 477.483825 538.876837 
z
" style="fill:#eb7598;stroke:#000000;stroke-linejoin:miter;"/>
   </g>
   <g id="patch_41">
    <path d="M 374.697189 737.375665 
C 363.34714 775.228285 356.158468 814.205956 353.258725 853.617071 
C 350.358983 893.028186 351.765424 932.638257 357.453093 971.744458 
L 895.393273 893.505575 
L 374.697189 737.375665 
z
" style="fill:#ebe978;stroke:#000000;stroke-linejoin:miter;"/>
   </g>
   <g id="patch_42">
    <path d="M 359.80402 984.959522 
C 367.147754 1035.452188 381.564137 1084.660357 402.628189 1131.133419 
C 423.69224 1177.606482 451.194924 1220.883247 484.325487 1259.687957 
L 897.744199 906.720639 
L 359.80402 984.959522 
z
" style="fill:#483752;stroke:#000000;stroke-linejoin:miter;"/>
   </g>
   <g id="patch_43">
    <path d="M 489.043164 1266.831034 
C 493.177796 1271.673788 497.397199 1276.443519 501.699421 1281.138018 
C 506.001643 1285.832518 510.386019 1290.451061 514.85052 1294.99151 
L 902.461877 913.863715 
L 489.043164 1266.831034 
z
" style="fill:#29ba72;stroke:#000000;stroke-linejoin:miter;"/>
   </g>
   <g id="patch_44">
    <path d="M 520.085354 1299.422861 
C 547.791891 1327.600729 578.488641 1352.673531 611.630929 1374.196385 
C 644.773217 1395.719239 680.163854 1413.564087 717.174882 1427.414298 
L 907.696711 918.295066 
L 520.085354 1299.422861 
z
" style="fill:#f5af76;stroke:#000000;stroke-linejoin:miter;"/>
   </g>
   <g id="patch_45">
    <path d="M 723.533683 1430.454151 
C 730.690302 1433.13229 737.902596 1435.659233 745.165755 1438.033293 
C 752.428913 1440.407353 759.741322 1442.628004 767.098106 1444.693764 
L 914.055512 921.334919 
L 723.533683 1430.454151 
z
" style="fill:#7e93f7;stroke:#000000;stroke-linejoin:miter;"/>
   </g>
   <g id="patch_46">
    <path d="M 770.237697 1445.516123 
C 783.726314 1449.303681 797.356316 1452.568358 811.097167 1455.302838 
C 824.838018 1458.037318 838.679448 1460.239558 852.590448 1461.904625 
L 917.195103 922.157278 
L 770.237697 1445.516123 
z
" style="fill:#54ffe3;stroke:#000000;stroke-linejoin:miter;"/>
   </g>
   <g id="patch_47">
    <path d="M 856.568244 1462.394929 
C 869.214335 1463.908593 881.909718 1464.97735 894.630884 1465.59922 
C 907.35205 1466.22109 920.091143 1466.39569 932.824575 1466.122695 
L 921.172899 922.647582 
L 856.568244 1462.394929 
z
" style="fill:#db5858;stroke:#000000;stroke-linejoin:miter;"/>
   </g>
   <g id="patch_48">
    <path d="M 937.400874 1465.960203 
C 955.229437 1465.577973 973.028398 1464.318682 990.733178 1462.186899 
C 1008.437959 1460.055116 1026.027122 1457.053423 1043.43685 1453.192709 
L 925.749199 922.48509 
L 937.400874 1465.960203 
z
" style="fill:#4a8a64;stroke:#000000;stroke-linejoin:miter;"/>
   </g>
   <g id="patch_49">
    <path d="M 1046.258382 1452.700988 
C 1047.501685 1452.425278 1048.744015 1452.1452 1049.985349 1451.860759 
C 1051.226683 1451.576318 1052.467014 1451.287515 1053.706318 1450.994357 
L 928.570731 921.993369 
L 1046.258382 1452.700988 
z
" style="fill:#de962a;stroke:#000000;stroke-linejoin:miter;"/>
   </g>
   <g id="patch_50">
    <path d="M 1056.6409 1450.145806 
C 1075.234751 1445.747417 1093.58378 1440.371752 1111.61157 1434.041198 
C 1129.639361 1427.710645 1147.320852 1420.434004 1164.582407 1412.241579 
L 931.505313 921.144819 
L 1056.6409 1450.145806 
z
" style="fill:#4aa9ed;stroke:#000000;stroke-linejoin:miter;"/>
   </g>
   <g id="patch_51">
    <path d="M 1168.926515 1410.2726 
C 1180.432739 1404.811685 1191.74349 1398.948077 1202.837822 1392.692633 
C 1213.932154 1386.437188 1224.803216 1379.793771 1235.430878 1372.774682 
L 935.84942 919.17584 
L 1168.926515 1410.2726 
z
" style="fill:#9e82b3;stroke:#000000;stroke-linejoin:miter;"/>
   </g>
   <g id="patch_52">
    <path d="M 1249.261255 1348.993779 
C 1324.559619 1299.262625 1386.303038 1231.555816 1428.900706 1152.004134 
C 1471.498374 1072.452453 1493.624552 983.531735 1493.275736 893.293663 
C 1492.92692 803.055591 1470.113967 714.308586 1426.902566 635.088599 
C 1383.691165 555.868613 1321.426157 488.641159 1245.745576 439.493616 
L 949.679797 895.394936 
L 1249.261255 1348.993779 
z
" style="fill:#88dba8;stroke:#000000;stroke-linejoin:miter;"/>
   </g>
   <g id="matplotlib.axis_1"/>
   <g id="matplotlib.axis_2"/>
  </g>
 </g>
</svg>
